{
.appVersion = "3080";
classes = (
{
code = "alef-ar
alef-ar.1";
name = alef;
},
{
code = "alef-ar.fina
alef-ar.fina.1";
name = alef.fina;
},
{
code = "waw-ar waw-ar.1";
name = waw;
},
{
code = "waw-ar.fina waw-ar.fina.1
";
name = waw.fina;
},
{
code = "ain-ar";
name = ain;
},
{
code = "ain-ar.init
ain-ar.init
";
name = ain.init;
},
{
code = "hamza-ar
@alef
behDotless-ar
hah-ar
dal-ar
reh-ar
seen-ar
sad-ar
tah-ar
ain-ar
fehDotless-ar
qafDotless-ar
kaf-ar
lam-ar
meem-ar
noonghunna-ar
heh-ar
@waw
alefMaksura-ar
behDotless_reh-ar
behDotless_waw-ar
ain_waw-ar
fehDotless_alefMaksura-ar
fehDotless_alef-ar
lam_alef-ar
meem_noonghunna-ar
lam_lam_heh-ar
";
name = isol;
},
{
code = "behDotless-ar.init
hah-ar.init
seen-ar.init
sad-ar.init
tah-ar.init
ain-ar.init
fehDotless-ar.init
kaf-ar.init
lam-ar.init
meem-ar.init
meem-ar.init.alt
heh-ar.init
behDotless_seen-ar.init
";
name = init;
},
{
code = "@alef.fina
alef-ar.fina.meem
behDotless-ar.fina
hah-ar.fina
dal-ar.fina
reh-ar.fina
seen-ar.fina
sad-ar.fina
tah-ar.fina
ain-ar.fina
fehDotless-ar.fina
qafDotless-ar.fina
kaf-ar.fina
lam-ar.fina
meem-ar.fina
noonghunna-ar.fina
heh-ar.fina
@waw.fina
waw-ar.fina.alt
alefMaksura-ar.fina
lam_alef-ar.fina
lam_alefMaksura-ar.fina
";
name = fina;
}
);
copyright = "Copyright 2021 The Raqq Project Authors (github.com/alif-type/raqq)";
customParameters = (
{
name = "Disable Last Change";
value = 1;
},
{
name = "Don't use Production Names";
value = 1;
},
{
name = "Disable Subroutines";
value = 1;
},
{
name = "Propagate Anchors";
value = 0;
},
{
name = "Write DisplayStrings";
value = 0;
},
{
name = "Use Line Breaks";
value = 1;
},
{
name = "Color Palettes";
value = (
(
"144,41,0,255",
"154,115,18,255",
"71,28,1,255"
)
);
},
{
name = "Virtual Master";
value = (
{
Axis = Shrink;
Location = 100;
},
{
Axis = Stretch;
Location = 0;
}
);
},
{
name = "Virtual Master";
value = (
{
Axis = Shrink;
Location = 0;
},
{
Axis = Stretch;
Location = 100;
}
);
},
{
name = localizedDesigner;

glyphs = (
{
glyphname = "alef-ar";
layers = (
{
anchors = (
{
name = bottom.hamza;
position = "{498, -130}";
}
);
layerId = m01;
paths = (
{
closed = 1;
nodes = (
"106 1166 OFFCURVE",
"66 1128 OFFCURVE",
"20 1080 CURVE",
"30 1036 OFFCURVE",
"40 986 OFFCURVE",
"40 908 CURVE SMOOTH",
"40 724 OFFCURVE",
"38 516 OFFCURVE",
"38 288 CURVE SMOOTH",
"38 -168 OFFCURVE",
"824 -170 OFFCURVE",
"1050 294 CURVE",
"754 12 OFFCURVE",
"150 84 OFFCURVE",
"150 442 CURVE SMOOTH",
"150 592 OFFCURVE",
"160 834 OFFCURVE",
"148 1240 CURVE"
);
}
);
width = 1050;
}
);
unicode = 0627;
},
{
glyphname = "alef-ar.1";
layers = (
{
anchors = (
{
name = bottom.hamza;
position = "{504, -130}";
}
);
layerId = m01;
paths = (
{
closed = 1;
nodes = (
"100 1166 OFFCURVE",
"66 1088 OFFCURVE",
"20 1040 CURVE",
"30 996 OFFCURVE",
"40 946 OFFCURVE",
"40 868 CURVE SMOOTH",
"42 684 OFFCURVE",
"46 516 OFFCURVE",
"42 328 CURVE SMOOTH",
"30 -194 OFFCURVE",
"858 -136 OFFCURVE",
"1080 256 CURVE",
"762 30 OFFCURVE",
"146 74 OFFCURVE",
"156 476 CURVE SMOOTH",
"160 626 OFFCURVE",
"160 834 OFFCURVE",
"142 1240 CURVE"
);
}
);
width = 1080;
}
);
},
{
glyphname = "alef-ar.fina";
layers = (
{
layerId = m01;
paths = (
{
closed = 1;
nodes = (
"266 164 LINE",
"292 132 LINE",
"188 130 OFFCURVE",
"160 162 OFFCURVE",
"156 210 CURVE SMOOTH",
"140 416 OFFCURVE",
"162 1086 OFFCURVE",
"154 1240 CURVE",
"130 1168 OFFCURVE",
"72 1100 OFFCURVE",
"20 1058 CURVE",
"46 800 OFFCURVE",
"32 376 OFFCURVE",
"20 44 CURVE SMOOTH",
"20 20 OFFCURVE",
"46 0 OFFCURVE",
"80 0 CURVE SMOOTH",
"280 0 LINE",
"264 -40 LINE"
);
}
);
width = 156;
}
);
},
{
color = 1;
glyphname = "alef-ar.fina.1";
layers = (
{
layerId = m01;
paths = (
{
closed = 1;
nodes = (
"266 164 LINE",
"292 132 LINE",
"188 130 OFFCURVE",
"160 162 OFFCURVE",
"156 210 CURVE SMOOTH",
"140 416 OFFCURVE",
"162 1086 OFFCURVE",
"154 1240 CURVE",
"130 1168 OFFCURVE",
"72 1100 OFFCURVE",
"20 1058 CURVE",
"46 800 OFFCURVE",
"32 376 OFFCURVE",
"20 44 CURVE SMOOTH",
"20 20 OFFCURVE",
"46 0 OFFCURVE",
"80 0 CURVE SMOOTH",
"280 0 LINE",
"264 -40 LINE"
);
}
);
width = 156;
}
);
},
{
glyphname = "alef-ar.fina.meem";
layers = (
{
layerId = m01;
paths = (
{
closed = 1;
nodes = (
"140 1228 OFFCURVE",
"92 1168 OFFCURVE",
"40 1126 CURVE",
"66 868 OFFCURVE",
"32 376 OFFCURVE",
"20 44 CURVE SMOOTH",
"20 20 OFFCURVE",
"46 0 OFFCURVE",
"80 0 CURVE SMOOTH",
"240 0 LINE",
"184 -40 LINE",
"186 202 LINE",
"248 134 LINE",
"204 148 OFFCURVE",
"130 182 OFFCURVE",
"132 236 CURVE SMOOTH",
"138 442 OFFCURVE",
"172 1146 OFFCURVE",
"164 1300 CURVE"
);
}
);
width = 156;
}
);
},
{
glyphname = "behDotless-ar.fina";
layers = (
{
anchors = (
{
name = bottom;
position = "{2188, -60}";
},
{
name = kasra;
position = "{1930, -92}";
},
{
name = ring;
position = "{1188, 0}";
},
{
name = top;
position = "{2228, 440}";
}
);
layerId = m01;
paths = (
{
closed = 1;
nodes = (
"2396 210 OFFCURVE",
"2352 412 OFFCURVE",
"2300 522 CURVE",
"2258 456 OFFCURVE",
"2204 396 OFFCURVE",
"2134 358 CURVE",
"2198 278 OFFCURVE",
"2238 192 OFFCURVE",
"2234 84 CURVE",
"2296 150 LINE",
"2126 122 OFFCURVE",
"1954 122 OFFCURVE",
"1590 118 CURVE SMOOTH",
"1322 114 OFFCURVE",
"860 118 OFFCURVE",
"398 126 CURVE SMOOTH",
"336 128 OFFCURVE",
"270 130 OFFCURVE",
"208 152 CURVE",
"148 86 OFFCURVE",
"86 34 OFFCURVE",
"20 6 CURVE",
"408 2 OFFCURVE",
"784 4 OFFCURVE",
"1174 4 CURVE SMOOTH",
"1592 4 OFFCURVE",
"2008 -2 OFFCURVE",
"2420 0 CURVE",
"2374 -56 LINE"
);
}
);
width = 2376;
}
);
},
{
glyphname = "behDotless-ar.medi";
layers = (
{
anchors = (
{
name = bottom;
position = "{100, -110}";
},
{
name = top;
position = "{48, 485}";
}
);
backgroundImage = {
alpha = 100;
imagePath = "1/image-0056.jpg";
transform = "{20, 0, 0, 20, -6521, -7013}";
};
layerId = m01;
paths = (
{
closed = 1;
nodes = (
"-45 132 LINE",
"-20 177 LINE",
"-20 -36 LINE",
"-58 0 LINE",
"284 0 LINE",
"180 -90 LINE",
"310 220 LINE",
"332 154 LINE",
"264 152 OFFCURVE",
"187 149 OFFCURVE",
"174 230 CURVE SMOOTH",
"153 358 OFFCURVE",
"135 486 OFFCURVE",
"124 614 CURVE",
"158 634 LINE",
"90 518 OFFCURVE",
"58 444 OFFCURVE",
"-36 350 CURVE",
"0 430 LINE",
"8 331 OFFCURVE",
"20 231 OFFCURVE",
"36 132 CURVE"
);
}
);
width = 227;
},
{
anchors = (
{
name = bottom;
position = "{2940, -110}";
},
{
name = top;
position = "{2888, 485}";
}
);
associatedMasterId = m01;
backgroundImage = {
alpha = 100;
imagePath = "1/image-0056.jpg";
locked = "1";
transform = "{20, 0, 0, 20, -3681, -7013}";
};
layerId = "86E49FB5-E58F-46D6-9294-1FA5FA1F9D58";
name = "{0, 100}";
paths = (
{
closed = 1;
nodes = (
"-45 132 LINE",
"-20 177 LINE",
"-20 -36 LINE",
"-58 0 LINE",
"3124 0 LINE",
"3020 -90 LINE",
"3150 220 LINE",
"3172 154 LINE",
"3104 152 OFFCURVE",
"3027 149 OFFCURVE",
"3014 230 CURVE SMOOTH",
"2993 358 OFFCURVE",
"2975 486 OFFCURVE",
"2964 614 CURVE",
"2998 634 LINE",
"2930 518 OFFCURVE",
"2898 444 OFFCURVE",
"2804 350 CURVE",
"2840 430 LINE",
"2848 331 OFFCURVE",
"2860 231 OFFCURVE",
"2876 132 CURVE"
);
}
);
width = 3067;
}
);
},
{
glyphname = "behDotless-ar.medi.ain";
layers = (
{
anchors = (
{
name = bottom;
position = "{100, -110}";
},
{
name = top;
position = "{68, 478}";
}
);
layerId = m01;
paths = (
{
closed = 1;
nodes = (
"0 132 LINE",
"0 -36 LINE",
"-58 0 LINE",
"284 0 LINE",
"180 -90 LINE",
"310 220 LINE",
"332 134 LINE",
"264 132 OFFCURVE",
"212 134 OFFCURVE",
"184 210 CURVE SMOOTH",
"154 294 OFFCURVE",
"118 476 OFFCURVE",
"124 614 CURVE",
"158 584 LINE",
"90 468 OFFCURVE",
"58 384 OFFCURVE",
"-36 290 CURVE",
"0 430 LINE",
"14 336 OFFCURVE",
"22 214 OFFCURVE",
"46 132 CURVE"
);
}
);
width = 210;
}
);
},
{
glyphname = "behDotless-ar.medi.kaf";
layers = (
{
anchors = (
{
name = bottom;
position = "{100, -42}";
},
{
name = top;
position = "{68, 478}";
}
);
layerId = m01;
paths = (
{
closed = 1;
nodes = (
"0 132 LINE",
"0 -36 LINE",
"-58 0 LINE",
"284 0 LINE",
"180 -90 LINE",
"310 220 LINE",
"332 134 LINE",
"264 132 OFFCURVE",
"196 122 OFFCURVE",
"168 198 CURVE SMOOTH",
"142 270 OFFCURVE",
"128 424 OFFCURVE",
"124 550 CURVE",
"86 484 OFFCURVE",
"56 430 OFFCURVE",
"8 372 CURVE",
"16 290 OFFCURVE",
"26 198 OFFCURVE",
"36 132 CURVE"
);
}
);
width = 200;
}
);
},
{
glyphname = "behDotless-ar.medi.lam";
layers = (
{
anchors = (
{
name = bottom;
position = "{88, -42}";
},
{
name = top;
position = "{116, 426}";
}
);
layerId = m01;
paths = (
{
closed = 1;
nodes = (
"0 132 LINE",
"0 -76 LINE",
"-50 0 LINE",
"272 0 LINE",
"168 -90 LINE",
"298 220 LINE",
"320 152 LINE",
"252 150 OFFCURVE",
"184 152 OFFCURVE",
"180 210 CURVE SMOOTH",
"174 294 OFFCURVE",
"178 478 OFFCURVE",
"176 610 CURVE",
"206 544 LINE",
"134 428 OFFCURVE",
"66 332 OFFCURVE",
"-28 234 CURVE",
"36 430 LINE",
"46 132 LINE"
);
}
);
width = 188;
}
);
},
{
glyphname = "behDotless-ar.medi.meem";
layers = (
{
anchors = (
{
name = bottom;
position = "{100, 0}";
},
{
name = ring;
position = "{100, 0}";
},
{
name = top;
position = "{48, 536}";
}
);
layerId = m01;
paths = (
{
closed = 1;
nodes = (
"310 220 LINE",
"328 132 LINE",
"236 132 OFFCURVE",
"196 122 OFFCURVE",
"164 198 CURVE SMOOTH",
"134 270 OFFCURVE",
"114 482 OFFCURVE",
"110 608 CURVE",
"72 542 OFFCURVE",
"38 488 OFFCURVE",
"-10 430 CURVE",
"-10 316 OFFCURVE",
"-4 202 OFFCURVE",
"10 88 CURVE SMOOTH",
"14 56 OFFCURVE",
"36 0 OFFCURVE",
"100 0 CURVE",
"284 0 LINE",
"180 -90 LINE"
);
}
);
width = 200;
}
);
},
{
glyphname = "behDotless-ar.init";
layers = (
{
anchors = (
{
name = bottom;
position = "{110, 38}";
},
{
name = fatha;
position = "{82, 700}";
},
{
name = ring;
position = "{80, 0}";
},
{
name = top;
position = "{44, 470}";
}
);
layerId = m01;
paths = (
{
closed = 1;
nodes = (
"-58 0 LINE",
"110 0 LINE",
"132 0 OFFCURVE",
"148 14 OFFCURVE",
"148 36 CURVE SMOOTH",
"148 358 OFFCURVE",
"152 434 OFFCURVE",
"86 670 CURVE",
"142 612 LINE",
"86 514 OFFCURVE",
"28 430 OFFCURVE",
"-42 362 CURVE",
"-46 444 LINE",
"24 304 OFFCURVE",
"8 282 OFFCURVE",
"8 84 CURVE",
"64 132 LINE",
"-54 132 LINE",
"-20 242 LINE",
"-20 -30 LINE"
);
}
);
width = 168;
}
);
},
{
glyphname = "behDotless-ar.init.ain";
layers = (
{
anchors = (
{
name = bottom;
position = "{110, 38}";
},
{
name = fatha;
position = "{130, 800}";
},
{
name = ring;
position = "{80, 0}";
},
{
name = top;
position = "{50, 602}";
}
);
layerId = m01;
paths = (
{
closed = 1;
nodes = (
"-58 0 LINE",
"110 0 LINE",
"132 0 OFFCURVE",
"148 14 OFFCURVE",
"148 36 CURVE SMOOTH",
"148 358 OFFCURVE",
"152 434 OFFCURVE",
"106 750 CURVE",
"142 738 LINE",
"86 640 OFFCURVE",
"28 556 OFFCURVE",
"-42 488 CURVE",
"-30 564 LINE",
"20 410 OFFCURVE",
"10 282 OFFCURVE",
"4 84 CURVE",
"64 132 LINE",
"-54 132 LINE",
"-20 242 LINE",
"-20 -30 LINE"
);
}
);
width = 168;
}
);
},
{
glyphname = "dal-ar";
layers = (
{
anchors = (
{
name = damma;
position = "{12, 226}";
}
);
backgroundImage = {
alpha = 100;
imagePath = "1/image-0056.jpg";
transform = "{20, 0, 0, 20, -12937, -3244}";
};
layerId = m01;
paths = (
{
closed = 1;
nodes = (
"427 403 OFFCURVE",
"307 262 OFFCURVE",
"203 145 CURVE",
"164 162 LINE",
"532 145 OFFCURVE",
"980 146 OFFCURVE",
"1348 152 CURVE",
"1352 150 OFFCURVE",
"1354 146 OFFCURVE",
"1356 140 CURVE",
"974 128 OFFCURVE",
"550 112 OFFCURVE",
"146 136 CURVE",
"226 165 LINE",
"182 109 OFFCURVE",
"105 49 OFFCURVE",
"20 6 CURVE",
"511 -6 OFFCURVE",
"1044 -1 OFFCURVE",
"1541 -1 CURVE SMOOTH",
"1561 -1 OFFCURVE",
"1577 21 OFFCURVE",
"1572 51 CURVE SMOOTH",
"1557 138 OFFCURVE",
"1543 179 OFFCURVE",
"1498 270 CURVE",
"1492 280 OFFCURVE",
"1480 282 OFFCURVE",
"1470 282 CURVE SMOOTH",
"1132 272 OFFCURVE",
"720 276 OFFCURVE",
"382 288 CURVE SMOOTH",
"370 288 OFFCURVE",
"368 292 OFFCURVE",
"376 300 CURVE SMOOTH",
"446 378 OFFCURVE",
"500 446 OFFCURVE",
"552 510 CURVE",
"540 520 LINE"
);
}
);
width = 1593;
},
{
anchors = (
{
name = damma;
position = "{12, 226}";
}
);
associatedMasterId = m01;
backgroundImage = {
alpha = 100;
imagePath = "1/image-0056.jpg";
transform = "{20, 0, 0, 20, -12937, -3244}";
};
layerId = "AD70FE29-E5CB-4DE7-9C64-68F8EB701C63";
name = "{0}";
paths = (
{
closed = 1;
nodes = (
"427 403 OFFCURVE",
"307 262 OFFCURVE",
"203 145 CURVE",
"164 162 LINE",
"532 145 OFFCURVE",
"980 146 OFFCURVE",
"1348 152 CURVE",
"1352 150 OFFCURVE",
"1354 146 OFFCURVE",
"1356 140 CURVE",
"974 128 OFFCURVE",
"550 112 OFFCURVE",
"146 136 CURVE",
"226 165 LINE",
"182 109 OFFCURVE",
"105 49 OFFCURVE",
"20 6 CURVE",
"511 -6 OFFCURVE",
"1044 -1 OFFCURVE",
"1541 -1 CURVE SMOOTH",
"1561 -1 OFFCURVE",
"1577 21 OFFCURVE",
"1572 51 CURVE SMOOTH",
"1557 138 OFFCURVE",
"1543 179 OFFCURVE",
"1498 270 CURVE",
"1492 280 OFFCURVE",
"1480 282 OFFCURVE",
"1470 282 CURVE SMOOTH",
"1132 272 OFFCURVE",
"720 276 OFFCURVE",
"382 288 CURVE SMOOTH",
"370 288 OFFCURVE",
"368 292 OFFCURVE",
"376 300 CURVE SMOOTH",
"446 378 OFFCURVE",
"500 446 OFFCURVE",
"552 510 CURVE",
"540 520 LINE"
);
}
);
width = 1593;
}
);
unicode = 062F;
},
{
glyphname = "dal-ar.fina";
layers = (
{
anchors = (
{
name = damma;
position = "{-18, 226}";
},
{
name = kasra;
position = "{958, -82}";
}
);
layerId = m01;
paths = (
{
closed = 1;
nodes = (
"424 390 OFFCURVE",
"314 276 OFFCURVE",
"194 166 CURVE",
"552 150 OFFCURVE",
"910 146 OFFCURVE",
"1268 152 CURVE",
"1272 150 OFFCURVE",
"1274 146 OFFCURVE",
"1276 140 CURVE",
"904 128 OFFCURVE",
"568 122 OFFCURVE",
"178 144 CURVE",
"136 96 OFFCURVE",
"82 52 OFFCURVE",
"20 6 CURVE",
"530 -6 OFFCURVE",
"1038 -10 OFFCURVE",
"1548 0 CURVE",
"1526 -30 LINE",
"1526 164 LINE",
"1552 132 LINE",
"1398 132 LINE",
"1520 78 LINE",
"1474 134 OFFCURVE",
"1460 214 OFFCURVE",
"1418 274 CURVE SMOOTH",
"1412 284 OFFCURVE",
"1400 284 OFFCURVE",
"1390 284 CURVE SMOOTH",
"1052 274 OFFCURVE",
"720 276 OFFCURVE",
"382 288 CURVE SMOOTH",
"370 288 OFFCURVE",
"368 292 OFFCURVE",
"376 300 CURVE SMOOTH",
"446 378 OFFCURVE",
"490 426 OFFCURVE",
"542 490 CURVE",
"530 500 LINE"
);
}
);
width = 1476;
},
{
anchors = (
{
name = damma;
position = "{-318, 226}";
},
{
name = kasra;
position = "{658, -82}";
}
);
associatedMasterId = m01;
backgroundImage = {
alpha = 100;
imagePath = "1/image-0056.jpg";
locked = "1";
transform = "{20, 0, 0, 20, -5639, -5176}";
};
layerId = "A9B502D6-BD98-4899-95D2-8C8C92379346";
name = "{100, 0}";
paths = (
{
closed = 1;
nodes = (
"424 390 OFFCURVE",
"314 276 OFFCURVE",
"194 166 CURVE",
"552 150 OFFCURVE",
"610 146 OFFCURVE",
"968 152 CURVE",
"972 150 OFFCURVE",
"974 146 OFFCURVE",
"976 140 CURVE",
"604 128 OFFCURVE",
"568 122 OFFCURVE",
"178 144 CURVE",
"136 96 OFFCURVE",
"82 52 OFFCURVE",
"20 6 CURVE",
"530 -6 OFFCURVE",
"738 -10 OFFCURVE",
"1248 0 CURVE",
"1226 -30 LINE",
"1226 164 LINE",
"1252 132 LINE",
"1098 132 LINE",
"1220 78 LINE",
"1174 134 OFFCURVE",
"1160 214 OFFCURVE",
"1118 274 CURVE SMOOTH",
"1112 284 OFFCURVE",
"1100 284 OFFCURVE",
"1090 284 CURVE SMOOTH",
"752 274 OFFCURVE",
"720 276 OFFCURVE",
"382 288 CURVE SMOOTH",
"370 288 OFFCURVE",
"368 292 OFFCURVE",
"376 300 CURVE SMOOTH",
"446 378 OFFCURVE",
"490 426 OFFCURVE",
"542 490 CURVE",
"530 500 LINE"
);
}
);
width = 1176;
}
);
},
{
glyphname = "reh-ar";
layers = (
{
anchors = (
{
name = fatha;
position = "{450, 652}";
},
{
name = top;
position = "{334, 382}";
}
);
layerId = m01;
paths = (
{
closed = 1;
nodes = (
"468 490 OFFCURVE",
"458 482 OFFCURVE",
"446 474 CURVE SMOOTH",
"404 446 OFFCURVE",
"292 322 OFFCURVE",
"240 242 CURVE SMOOTH",
"232 230 OFFCURVE",
"226 212 OFFCURVE",
"246 204 CURVE SMOOTH",
"308 176 OFFCURVE",
"400 178 OFFCURVE",
"474 180 CURVE",
"478 176 OFFCURVE",
"480 170 OFFCURVE",
"480 166 CURVE",
"400 154 OFFCURVE",
"284 160 OFFCURVE",
"198 192 CURVE",
"158 144 OFFCURVE",
"80 90 OFFCURVE",
"20 62 CURVE",
"78 14 OFFCURVE",
"458 -26 OFFCURVE",
"618 22 CURVE SMOOTH",
"658 34 OFFCURVE",
"684 50 OFFCURVE",
"690 90 CURVE SMOOTH",
"714 240 OFFCURVE",
"590 406 OFFCURVE",
"492 474 CURVE SMOOTH"
);
}
);
width = 713;
}
);
unicode = 0631;
},
{
glyphname = "reh-ar.1";
layers = (
{
anchors = (
{
name = fatha;
position = "{460, 652}";
},
{
name = top;
position = "{344, 382}";
}
);
backgroundImage = {
alpha = 100;
imagePath = "1/image-0056.jpg";
locked = "1";
transform = "{20, 0, 0, 20, -9988, -7023}";
};
layerId = m01;
paths = (
{
closed = 1;
nodes = (
"449 403 OFFCURVE",
"431 405 OFFCURVE",
"420 394 CURVE SMOOTH",
"382 356 OFFCURVE",
"296 232 OFFCURVE",
"240 162 CURVE SMOOTH",
"231 151 OFFCURVE",
"216 132 OFFCURVE",
"236 124 CURVE SMOOTH",
"298 96 OFFCURVE",
"368 98 OFFCURVE",
"442 100 CURVE",
"446 96 OFFCURVE",
"448 90 OFFCURVE",
"448 86 CURVE",
"368 74 OFFCURVE",
"274 80 OFFCURVE",
"188 112 CURVE",
"148 64 OFFCURVE",
"80 -11 OFFCURVE",
"20 -28 CURVE",
"48 -88 OFFCURVE",
"448 -78 OFFCURVE",
"558 -50 CURVE SMOOTH",
"648 -27 OFFCURVE",
"678 10 OFFCURVE",
"684 61 CURVE SMOOTH",
"693 141 OFFCURVE",
"528 337 OFFCURVE",
"459 394 CURVE SMOOTH"
);
}
);
width = 704;
}
);
},
{
glyphname = "reh-ar.fina";
layers = (
{
anchors = (
{
name = fatha;
position = "{432, 372}";
},
{
name = top;
position = "{322, 200}";
}
);
layerId = m01;
paths = (
{
closed = 1;
nodes = (
"434 288 OFFCURVE",
"424 284 OFFCURVE",
"414 276 CURVE SMOOTH",
"382 250 OFFCURVE",
"272 128 OFFCURVE",
"222 56 CURVE SMOOTH",
"214 46 OFFCURVE",
"202 28 OFFCURVE",
"220 22 CURVE SMOOTH",
"276 2 OFFCURVE",
"364 -2 OFFCURVE",
"430 0 CURVE",
"434 -4 OFFCURVE",
"436 -14 OFFCURVE",
"436 -18 CURVE",
"364 -30 OFFCURVE",
"258 -24 OFFCURVE",
"180 4 CURVE",
"144 -38 OFFCURVE",
"74 -102 OFFCURVE",
"20 -126 CURVE",
"74 -170 OFFCURVE",
"416 -192 OFFCURVE",
"560 -154 CURVE SMOOTH",
"596 -144 OFFCURVE",
"636 -120 OFFCURVE",
"642 -84 CURVE SMOOTH",
"664 52 OFFCURVE",
"548 214 OFFCURVE",
"454 276 CURVE SMOOTH"
);
}
);
width = 568;
}
);
},
{
glyphname = "seen-ar.init";
layers = (
{
anchors = (
{
name = damma;
position = "{-16, 255}";
},
{
name = top;
position = "{199, 277}";
}
);
layerId = m01;
paths = (
{
closed = 1;
nodes = (
"461 228 OFFCURVE",
"458 409 OFFCURVE",
"443 581 CURVE",
"468 572 LINE",
"418 467 OFFCURVE",
"352 363 OFFCURVE",
"291 309 CURVE",
"324 412 LINE",
"335 318 OFFCURVE",
"335 230 OFFCURVE",
"338 134 CURVE",
"359 145 LINE",
"295 235 OFFCURVE",
"293 402 OFFCURVE",
"264 556 CURVE",
"304 539 LINE",
"276 410 OFFCURVE",
"204 292 OFFCURVE",
"150 216 CURVE",
"150 339 LINE",
"162 277 OFFCURVE",
"163 156 OFFCURVE",
"207 94 CURVE",
"215 123 LINE",
"133 195 OFFCURVE",
"114 352 OFFCURVE",
"78 459 CURVE",
"125 514 LINE",
"86 417 OFFCURVE",
"37 250 OFFCURVE",
"-29 180 CURVE",
"-47 310 LINE",
"-23 242 OFFCURVE",
"17 163 OFFCURVE",
"45 130 CURVE",
"67 70 LINE",
"91 132 LINE",
"-40 132 LINE",
"-20 161 LINE",
"-20 -26 LINE",
"-40 0 LINE",
"436 0 LINE SMOOTH",
"462 0 OFFCURVE",
"474 31 OFFCURVE",
"472 56 CURVE SMOOTH"
);
}
);
width = 492;
}
);
},
{
glyphname = "ain-ar.medi";
layers = (
{
layerId = m01;
paths = (
{
closed = 1;
nodes = (
"308 160 LINE",
"340 132 LINE",
"192 132 LINE",
"262 100 LINE",
"272 234 OFFCURVE",
"264 408 OFFCURVE",
"230 546 CURVE",
"172 466 OFFCURVE",
"104 392 OFFCURVE",
"32 326 CURVE",
"146 320 LINE",
"78 364 OFFCURVE",
"8 418 OFFCURVE",
"-36 482 CURVE",
"-84 418 OFFCURVE",
"-134 354 OFFCURVE",
"-194 306 CURVE",
"-126 238 OFFCURVE",
"-48 176 OFFCURVE",
"36 120 CURVE",
"66 132 LINE",
"-50 132 LINE",
"-20 154 LINE",
"-20 -30 LINE",
"-50 0 LINE",
"340 0 LINE",
"308 -40 LINE"
);
}
);
width = 280;
}
);
},
{
glyphname = "ain-ar.init";
layers = (
{
anchors = (
{
name = fatha;
position = "{120, 618}";
}
);
layerId = m01;
paths = (
{
closed = 1;
nodes = (
"18 302 LINE SMOOTH",
"-45 233 OFFCURVE",
"30 124 OFFCURVE",
"128 104 CURVE",
"160 132 LINE",
"-66 132 LINE",
"-20 198 LINE",
"-20 -36 LINE",
"-72 0 LINE",
"272 -4 OFFCURVE",
"590 -4 OFFCURVE",
"934 0 CURVE",
"1080 114 LINE",
"864 106 OFFCURVE",
"624 114 OFFCURVE",
"430 162 CURVE SMOOTH",
"244 208 OFFCURVE",
"97 359 OFFCURVE",
"158 428 CURVE SMOOTH",
"274 558 LINE",
"262 570 LINE"
);
}
);
width = 1100;
}
);
},
{
glyphname = "ain-ar.init.1";
layers = (
{
anchors = (
{
name = fatha;
position = "{134, 642}";
}
);
layerId = m01;
paths = (
{
closed = 1;
nodes = (
"18 336 LINE SMOOTH",
"-45 267 OFFCURVE",
"30 124 OFFCURVE",
"128 104 CURVE",
"160 132 LINE",
"-66 132 LINE",
"-20 198 LINE",
"-20 -36 LINE",
"-72 0 LINE",
"272 -4 OFFCURVE",
"590 -4 OFFCURVE",
"934 0 CURVE",
"1122 106 LINE",
"906 98 OFFCURVE",
"622 108 OFFCURVE",
"428 160 CURVE SMOOTH",
"242 210 OFFCURVE",
"88 382 OFFCURVE",
"150 452 CURVE SMOOTH",
"274 592 LINE",
"262 604 LINE"
);
}
);
width = 1102;
}
);
},
{
glyphname = "kaf-ar.init";
layers = (
{
backgroundImage = {
alpha = 100;
imagePath = "1/image-0056.jpg";
transform = "{20, 0, 0, 20, -3015, -5236}";
};
layerId = m01;
paths = (
{
closed = 1;
nodes = (
"-78 0 LINE",
"210 2 OFFCURVE",
"504 6 OFFCURVE",
"804 8 CURVE SMOOTH",
"1102 10 OFFCURVE",
"1410 8 OFFCURVE",
"1718 8 CURVE SMOOTH",
"1752 8 OFFCURVE",
"1814 18 OFFCURVE",
"1814 52 CURVE SMOOTH",
"1814 104 OFFCURVE",
"1804 158 OFFCURVE",
"1794 208 CURVE SMOOTH",
"1780 282 OFFCURVE",
"1766 312 OFFCURVE",
"1678 310 CURVE SMOOTH",
"1442 302 OFFCURVE",
"1162 290 OFFCURVE",
"914 288 CURVE SMOOTH",
"682 286 OFFCURVE",
"452 286 OFFCURVE",
"280 294 CURVE SMOOTH",
"238 296 OFFCURVE",
"172 310 OFFCURVE",
"196 344 CURVE SMOOTH",
"242 410 OFFCURVE",
"294 486 OFFCURVE",
"340 552 CURVE",
"318 566 LINE",
"222 444 OFFCURVE",
"128 310 OFFCURVE",
"44 212 CURVE SMOOTH",
"20 184 OFFCURVE",
"40 168 OFFCURVE",
"66 162 CURVE SMOOTH",
"98 156 OFFCURVE",
"148 158 OFFCURVE",
"196 158 CURVE SMOOTH",
"488 160 OFFCURVE",
"782 158 OFFCURVE",
"1008 160 CURVE SMOOTH",
"1230 162 OFFCURVE",
"1388 156 OFFCURVE",
"1544 150 CURVE",
"1546 146 OFFCURVE",
"1546 144 OFFCURVE",
"1544 140 CURVE",
"1002 136 OFFCURVE",
"462 136 OFFCURVE",
"-80 132 CURVE",
"0 222 LINE",
"0 -90 LINE"
);
}
);
width = 1834;
},
{
associatedMasterId = m01;
backgroundImage = {
alpha = 100;
imagePath = "1/image-0056.jpg";
transform = "{20, 0, 0, 20, -3319, -5176}";
};
layerId = "B8BA4F85-A6BE-4284-99F4-178241BCA683";
name = "{100, 0}";
paths = (
{
closed = 1;
nodes = (
"-78 0 LINE",
"65 1 OFFCURVE",
"208 3 OFFCURVE",
"351 4 CURVE SMOOTH",
"483 5 OFFCURVE",
"616 8 OFFCURVE",
"748 8 CURVE SMOOTH",
"782 8 OFFCURVE",
"844 18 OFFCURVE",
"844 52 CURVE SMOOTH",
"844 104 OFFCURVE",
"834 158 OFFCURVE",
"824 208 CURVE SMOOTH",
"810 282 OFFCURVE",
"796 312 OFFCURVE",
"708 310 CURVE",
"633 307 OFFCURVE",
"558 307 OFFCURVE",
"483 306 CURVE SMOOTH",
"415 305 OFFCURVE",
"348 304 OFFCURVE",
"280 302 CURVE SMOOTH",
"238 301 OFFCURVE",
"172 310 OFFCURVE",
"196 344 CURVE SMOOTH",
"242 410 OFFCURVE",
"294 486 OFFCURVE",
"340 552 CURVE",
"328 566 LINE",
"232 444 OFFCURVE",
"138 310 OFFCURVE",
"54 212 CURVE SMOOTH",
"30 184 OFFCURVE",
"38 162 OFFCURVE",
"66 162 CURVE SMOOTH",
"98 162 OFFCURVE",
"148 158 OFFCURVE",
"196 158 CURVE SMOOTH",
"260 158 OFFCURVE",
"325 160 OFFCURVE",
"390 162 CURVE SMOOTH",
"465 165 OFFCURVE",
"539 167 OFFCURVE",
"614 168 CURVE",
"616 164 OFFCURVE",
"616 154 OFFCURVE",
"614 150 CURVE",
"463 139 OFFCURVE",
"77 133 OFFCURVE",
"-80 132 CURVE",
"0 222 LINE",
"0 -90 LINE"
);
}
);
width = 864;
}
);
},
{
glyphname = "lam-ar.medi";
layers = (
{
anchors = (
{
name = fatha;
position = "{-182, 1132}";
},
{
name = kasra;
position = "{110, -81}";
}
);
backgroundImage = {
alpha = 100;
imagePath = "1/image-0056.jpg";
locked = "1";
transform = "{20, 0, 0, 20, -3518, -7010}";
};
layerId = m01;
paths = (
{
closed = 1;
nodes = (
"-77 0 LINE",
"82 0 LINE",
"263 0 LINE",
"218 -45 LINE",
"218 177 LINE",
"248 135 LINE",
"160 119 OFFCURVE",
"124 168 OFFCURVE",
"124 300 CURVE SMOOTH",
"124 572 OFFCURVE",
"131 948 OFFCURVE",
"108 1312 CURVE",
"126 1299 LINE",
"85 1207 OFFCURVE",
"23 1117 OFFCURVE",
"-54 1066 CURVE",
"-30 1119 LINE",
"7 1035 OFFCURVE",
"8 890 OFFCURVE",
"9 746 CURVE SMOOTH",
"12 83 LINE",
"77 132 LINE",
"-92 132 LINE",
"-30 150 LINE",
"-30 -34 LINE"
);
}
);
width = 158;
}
);
},
{
glyphname = "lam-ar.medi.ain";
layers = (
{
anchors = (
{
name = fatha;
position = "{-172, 1132}";
}
);
layerId = m01;
paths = (
{
closed = 1;
nodes = (
"372 0 LINE",
"372 132 LINE",
"230 132 LINE",
"366 116 LINE",
"288 160 OFFCURVE",
"170 244 OFFCURVE",
"124 300 CURVE",
"136 564 OFFCURVE",
"150 926 OFFCURVE",
"112 1280 CURVE",
"76 1210 OFFCURVE",
"26 1150 OFFCURVE",
"-24 1104 CURVE",
"8 1006 OFFCURVE",
"18 750 OFFCURVE",
"18 576 CURVE SMOOTH",
"18 402 OFFCURVE",
"6 230 OFFCURVE",
"-2 56 CURVE SMOOTH",
"-4 30 OFFCURVE",
"18 -2 OFFCURVE",
"92 0 CURVE"
);
}
);
width = 350;
}
);
},
{
glyphname = "lam-ar.init";
layers = (
{
backgroundImage = {
alpha = 100;
imagePath = "1/image-0056.jpg";
locked = "1";
transform = "{20, 0, 0, 20, -8980, -8864}";
};
layerId = m01;
paths = (
{
closed = 1;
nodes = (
"-48 0 LINE",
"112 0 LINE SMOOTH",
"130 0 OFFCURVE",
"158 12 OFFCURVE",
"158 30 CURVE SMOOTH",
"156 172 OFFCURVE",
"150 392 OFFCURVE",
"148 572 CURVE SMOOTH",
"146 794 OFFCURVE",
"162 1018 OFFCURVE",
"144 1240 CURVE",
"104 1168 OFFCURVE",
"64 1100 OFFCURVE",
"10 1048 CURVE",
"26 994 OFFCURVE",
"34 934 OFFCURVE",
"34 820 CURVE SMOOTH",
"34 630 OFFCURVE",
"30 382 OFFCURVE",
"24 132 CURVE",
"-46 134 LINE",
"-20 180 LINE",
"-20 -34 LINE"
);
}
);
width = 178;
}
);
},
{
glyphname = "meem-ar.fina";
layers = (
{
layerId = m01;
paths = (
{
closed = 1;
nodes = (
"928 -22 OFFCURVE",
"956 22 OFFCURVE",
"956 142 CURVE SMOOTH",
"956 304 OFFCURVE",
"854 500 OFFCURVE",
"710 500 CURVE SMOOTH",
"562 500 OFFCURVE",
"420 318 OFFCURVE",
"420 128 CURVE SMOOTH",
"420 2 OFFCURVE",
"572 -22 OFFCURVE",
"694 -22 CURVE SMOOTH"
);
},
{
closed = 1;
nodes = (
"478 130 LINE",
"392 126 OFFCURVE",
"302 128 OFFCURVE",
"214 152 CURVE",
"158 94 OFFCURVE",
"92 50 OFFCURVE",
"20 8 CURVE",
"232 -6 OFFCURVE",
"484 -22 OFFCURVE",
"694 -22 CURVE"
);
},
{
closed = 1;
nodes = (
"694 234 OFFCURVE",
"688 240 OFFCURVE",
"688 247 CURVE SMOOTH",
"688 254 OFFCURVE",
"694 260 OFFCURVE",
"701 260 CURVE SMOOTH",
"708 260 OFFCURVE",
"714 254 OFFCURVE",
"714 247 CURVE SMOOTH",
"714 240 OFFCURVE",
"708 234 OFFCURVE",
"701 234 CURVE SMOOTH"
);
}
);
width = 950;
},
{
associatedMasterId = m01;
layerId = "E0CE7A6A-A561-47FC-A655-1D4A4B2AE5B5";
name = "26 Apr 21, 22:21";
paths = (
{
closed = 1;
nodes = (
"914 -24 OFFCURVE",
"956 10 OFFCURVE",
"956 128 CURVE SMOOTH",
"956 290 OFFCURVE",
"850 486 OFFCURVE",
"708 486 CURVE SMOOTH",
"564 486 OFFCURVE",
"442 324 OFFCURVE",
"442 114 CURVE SMOOTH",
"442 8 OFFCURVE",
"530 -24 OFFCURVE",
"708 -24 CURVE SMOOTH"
);
},
{
closed = 1;
nodes = (
"706 210 OFFCURVE",
"702 214 OFFCURVE",
"702 224 CURVE SMOOTH",
"702 232 OFFCURVE",
"706 236 OFFCURVE",
"716 236 CURVE SMOOTH",
"724 236 OFFCURVE",
"728 232 OFFCURVE",
"728 224 CURVE SMOOTH",
"728 214 OFFCURVE",
"724 210 OFFCURVE",
"716 210 CURVE SMOOTH"
);
}
);
width = 950;
},
{
associatedMasterId = m01;
layerId = "68EBDF7B-15A5-46E4-9C57-C98FC85622D4";
name = "26 Apr 21, 22:20";
paths = (
{
closed = 1;
nodes = (
"928 -22 OFFCURVE",
"956 24 OFFCURVE",
"956 142 CURVE SMOOTH",
"956 304 OFFCURVE",
"854 500 OFFCURVE",
"710 500 CURVE SMOOTH",
"560 500 OFFCURVE",
"420 318 OFFCURVE",
"420 128 CURVE",
"352 128 OFFCURVE",
"282 134 OFFCURVE",
"214 152 CURVE",
"158 94 OFFCURVE",
"92 50 OFFCURVE",
"20 8 CURVE",
"236 -6 OFFCURVE",
"490 -22 OFFCURVE",
"702 -22 CURVE SMOOTH"
);
},
{
closed = 1;
nodes = (
"692 234 OFFCURVE",
"688 238 OFFCURVE",
"688 248 CURVE SMOOTH",
"688 256 OFFCURVE",
"692 260 OFFCURVE",
"702 260 CURVE SMOOTH",
"710 260 OFFCURVE",
"714 256 OFFCURVE",
"714 248 CURVE SMOOTH",
"714 238 OFFCURVE",
"710 234 OFFCURVE",
"702 234 CURVE SMOOTH"
);
}
);
width = 950;
}
);
},
{
glyphname = "meem-ar.medi";
layers = (
{
layerId = m01;
paths = (
{
closed = 1;
nodes = (
"294 0 LINE",
"500 0 OFFCURVE",
"528 8 OFFCURVE",
"528 126 CURVE SMOOTH",
"528 288 OFFCURVE",
"374 468 OFFCURVE",
"274 468 CURVE SMOOTH",
"150 468 OFFCURVE",
"0 322 OFFCURVE",
"0 112 CURVE",
"0 0 LINE"
);
},
{
closed = 1;
nodes = (
"294 208 OFFCURVE",
"288 214 OFFCURVE",
"288 221 CURVE SMOOTH",
"288 228 OFFCURVE",
"294 234 OFFCURVE",
"301 234 CURVE SMOOTH",
"308 234 OFFCURVE",
"314 228 OFFCURVE",
"314 221 CURVE SMOOTH",
"314 214 OFFCURVE",
"308 208 OFFCURVE",
"301 208 CURVE SMOOTH"
);
}
);
width = 518;
}
);
},
{
glyphname = "meem-ar.medi.alt";
layers = (
{
background = {
backgroundImage = {
imagePath = "1/image-0056.jpg";
locked = "1";
transform = "{10, 0, 0, 10, -5497, -4420}";
};
};
layerId = m01;
paths = (
{
closed = 1;
nodes = (
"470 -26 OFFCURVE",
"516 8 OFFCURVE",
"516 126 CURVE SMOOTH",
"516 288 OFFCURVE",
"406 484 OFFCURVE",
"264 484 CURVE SMOOTH",
"120 484 OFFCURVE",
"-2 322 OFFCURVE",
"-2 112 CURVE SMOOTH",
"-2 6 OFFCURVE",
"86 -26 OFFCURVE",
"264 -26 CURVE SMOOTH"
);
},
{
closed = 1;
nodes = (
"264 208 OFFCURVE",
"258 214 OFFCURVE",
"258 221 CURVE SMOOTH",
"258 228 OFFCURVE",
"264 234 OFFCURVE",
"271 234 CURVE SMOOTH",
"278 234 OFFCURVE",
"284 228 OFFCURVE",
"284 221 CURVE SMOOTH",
"284 214 OFFCURVE",
"278 208 OFFCURVE",
"271 208 CURVE SMOOTH"
);
}
);
width = 510;
}
);
},
{
glyphname = "meem-ar.init";
layers = (
{
anchors = (
{
name = kasra;
position = "{350, -164}";
}
);
backgroundImage = {
alpha = 100;
imagePath = "1/image-0056.jpg";
locked = "1";
transform = "{20, 0, 0, 20, -6741, -7014}";
};
layerId = m01;
paths = (
{
closed = 1;
nodes = (
"504 -6 OFFCURVE",
"516 28 OFFCURVE",
"516 111 CURVE SMOOTH",
"516 308 OFFCURVE",
"390 523 OFFCURVE",
"268 523 CURVE SMOOTH",
"128 523 OFFCURVE",
"-16 342 OFFCURVE",
"-2 158 CURVE SMOOTH",
"6 50 OFFCURVE",
"100 -6 OFFCURVE",
"302 -6 CURVE SMOOTH"
);
},
{
closed = 1;
nodes = (
"269 242 OFFCURVE",
"263 248 OFFCURVE",
"263 255 CURVE SMOOTH",
"263 262 OFFCURVE",
"269 268 OFFCURVE",
"276 268 CURVE SMOOTH",
"283 268 OFFCURVE",
"289 262 OFFCURVE",
"289 255 CURVE SMOOTH",
"289 248 OFFCURVE",
"283 242 OFFCURVE",
"276 242 CURVE SMOOTH"
);
},
{
closed = 1;
nodes = (
"-20 0 LINE",
"302 0 LINE",
"302 132 LINE",
"-20 132 LINE"
);
}
);
width = 556;
}
);
},
{
glyphname = "meem-ar.init.alt";
layers = (
{
anchors = (
{
name = kasra;
position = "{350, -164}";
}
);
backgroundImage = {
alpha = 100;
imagePath = "1/image-0056.jpg";
locked = "1";
transform = "{20, 0, 0, 20, -11512, -8844}";
};
layerId = m01;
paths = (
{
closed = 1;
nodes = (
"504 -6 OFFCURVE",
"536 28 OFFCURVE",
"536 146 CURVE SMOOTH",
"536 308 OFFCURVE",
"420 504 OFFCURVE",
"278 504 CURVE SMOOTH",
"128 504 OFFCURVE",
"-16 342 OFFCURVE",
"-2 158 CURVE SMOOTH",
"6 50 OFFCURVE",
"100 -6 OFFCURVE",
"302 -6 CURVE SMOOTH"
);
},
{
closed = 1;
nodes = (
"284 232 OFFCURVE",
"278 238 OFFCURVE",
"278 245 CURVE SMOOTH",
"278 252 OFFCURVE",
"284 258 OFFCURVE",
"291 258 CURVE SMOOTH",
"298 258 OFFCURVE",
"304 252 OFFCURVE",
"304 245 CURVE SMOOTH",
"304 238 OFFCURVE",
"298 232 OFFCURVE",
"291 232 CURVE SMOOTH"
);
}
);
width = 556;
}
);
},
{
glyphname = "noonghunna-ar";
layers = (
{
anchors = (
{
name = fatha;
position = "{134, 342}";
},
{
name = kasra;
position = "{558, -413}";
},
{
name = top;
position = "{78, 210}";
}
);
backgroundImage = {
alpha = 100;
imagePath = "1/image-0056.jpg";
transform = "{20, 0, 0, 20, -11079, -3240}";
};
layerId = m01;
paths = (
{
closed = 1;
nodes = (
"418 -882 OFFCURVE",
"430 -862 OFFCURVE",
"430 -838 CURVE SMOOTH",
"430 -592 OFFCURVE",
"442 -346 OFFCURVE",
"438 -100 CURVE SMOOTH",
"434 138 OFFCURVE",
"348 256 OFFCURVE",
"158 316 CURVE",
"20 136 LINE",
"124 120 OFFCURVE",
"240 64 OFFCURVE",
"282 -44 CURVE SMOOTH",
"338 -190 OFFCURVE",
"322 -474 OFFCURVE",
"306 -724 CURVE",
"218 -732 OFFCURVE",
"122 -720 OFFCURVE",
"40 -692 CURVE",
"2 -758 OFFCURVE",
"-46 -820 OFFCURVE",
"-106 -866 CURVE",
"48 -908 OFFCURVE",
"238 -908 OFFCURVE",
"390 -886 CURVE SMOOTH"
);
}
);
width = 459;
}
);
unicode = 06BA;
},
{
glyphname = "noonghunna-ar.1";
layers = (
{
anchors = (
{
name = fatha;
position = "{134, 342}";
},
{
name = kasra;
position = "{558, -413}";
},
{
name = top;
position = "{78, 250}";
}
);
backgroundImage = {
alpha = 100;
imagePath = "1/image-0056.jpg";
locked = "1";
transform = "{20, 0, 0, 20, -11079, -3240}";
};
layerId = m01;
paths = (
{
closed = 1;
nodes = (
"428 -882 OFFCURVE",
"440 -862 OFFCURVE",
"440 -838 CURVE SMOOTH",
"440 -592 OFFCURVE",
"435 -306 OFFCURVE",
"431 -60 CURVE SMOOTH",
"427 191 OFFCURVE",
"338 289 OFFCURVE",
"126 345 CURVE",
"185 382 LINE",
"-7 130 LINE",
"-8 159 LINE",
"102 150 OFFCURVE",
"236 94 OFFCURVE",
"282 -24 CURVE SMOOTH",
"338 -170 OFFCURVE",
"322 -474 OFFCURVE",
"306 -724 CURVE",
"208 -733 OFFCURVE",
"131 -737 OFFCURVE",
"13 -702 CURVE",
"104 -666 LINE",
"59 -750 OFFCURVE",
"-32 -859 OFFCURVE",
"-112 -911 CURVE",
"-133 -858 LINE",
"25 -908 OFFCURVE",
"239 -909 OFFCURVE",
"400 -886 CURVE SMOOTH"
);
}
);
width = 459;
}
);
},
{
glyphname = "heh-ar";
layers = (
{
anchors = (
{
name = kasra;
position = "{321, -94}";
}
);
backgroundImage = {
alpha = 100;
imagePath = "1/image-0056.jpg";
locked = "1";
transform = "{20, 0, 0, 20, -9106, -7020}";
};
layerId = m01;
paths = (
{
closed = 1;
nodes = (
"440 17 OFFCURVE",
"495 37 OFFCURVE",
"498 73 CURVE SMOOTH",
"508 205 OFFCURVE",
"465 748 OFFCURVE",
"434 887 CURVE",
"479 827 LINE",
"431 716 OFFCURVE",
"367 608 OFFCURVE",
"284 528 CURVE",
"313 666 LINE",
"361 417 LINE",
"402 523 LINE",
"233 502 OFFCURVE",
"20 400 OFFCURVE",
"20 193 CURVE SMOOTH",
"20 36 OFFCURVE",
"228 -31 OFFCURVE",
"405 9 CURVE SMOOTH"
);
},
{
closed = 1;
nodes = (
"302 260 OFFCURVE",
"296 266 OFFCURVE",
"296 273 CURVE SMOOTH",
"296 280 OFFCURVE",
"302 286 OFFCURVE",
"309 286 CURVE SMOOTH",
"316 286 OFFCURVE",
"322 280 OFFCURVE",
"322 273 CURVE SMOOTH",
"322 266 OFFCURVE",
"316 260 OFFCURVE",
"309 260 CURVE SMOOTH"
);
}
);
width = 519;
}
);
unicode = 0647;
},
{
glyphname = "heh-ar.fina";
layers = (
{
anchors = (
{
name = kasra;
position = "{149, -66}";
}
);
backgroundImage = {
alpha = 100;
imagePath = "1/image-0056.jpg";
transform = "{20, 0, 0, 20, -3001, -7024}";
};
layerId = m01;
paths = (
{
closed = 1;
nodes = (
"560 212 LINE",
"599 171 LINE",
"551 171 OFFCURVE",
"505 173 OFFCURVE",
"505 248 CURVE SMOOTH",
"508 842 LINE",
"517 818 LINE",
"463 720 OFFCURVE",
"401 632 OFFCURVE",
"328 580 CURVE",
"358 706 LINE",
"357 439 LINE",
"406 540 LINE",
"247 495 OFFCURVE",
"20 419 OFFCURVE",
"20 183 CURVE SMOOTH",
"20 61 OFFCURVE",
"136 -1 OFFCURVE",
"267 0 CURVE SMOOTH",
"373 1 OFFCURVE",
"480 1 OFFCURVE",
"586 0 CURVE",
"560 -81 LINE"
);
},
{
closed = 1;
nodes = (
"269 266 OFFCURVE",
"263 272 OFFCURVE",
"263 279 CURVE SMOOTH",
"263 286 OFFCURVE",
"269 292 OFFCURVE",
"276 292 CURVE SMOOTH",
"283 292 OFFCURVE",
"289 286 OFFCURVE",
"289 279 CURVE SMOOTH",
"289 272 OFFCURVE",
"283 266 OFFCURVE",
"276 266 CURVE SMOOTH"
);
}
);
width = 540;
}
);
},
{
glyphname = "heh-ar.medi";
layers = (
{
layerId = m01;
paths = (
{
closed = 1;
nodes = (
"358 -20 OFFCURVE",
"426 -20 OFFCURVE",
"464 6 CURVE SMOOTH",
"480 18 OFFCURVE",
"495 34 OFFCURVE",
"491 53 CURVE SMOOTH",
"466 158 OFFCURVE",
"415 336 OFFCURVE",
"341 837 CURVE",
"372 818 LINE",
"313 664 OFFCURVE",
"284 631 OFFCURVE",
"225 557 CURVE",
"221 655 LINE",
"247 515 LINE",
"288 569 LINE",
"124 472 OFFCURVE",
"-8 344 OFFCURVE",
"12 196 CURVE SMOOTH",
"29 72 OFFCURVE",
"168 -20 OFFCURVE",
"313 -20 CURVE SMOOTH"
);
},
{
closed = 1;
nodes = (
"-85 0 LINE",
"530 0 LINE",
"500 -49 LINE",
"489 194 LINE",
"509 132 LINE",
"-74 132 LINE",
"0 184 LINE",
"0 -63 LINE"
);
},
{
closed = 1;
nodes = (
"274 218 OFFCURVE",
"268 224 OFFCURVE",
"268 231 CURVE SMOOTH",
"268 238 OFFCURVE",
"274 244 OFFCURVE",
"281 244 CURVE SMOOTH",
"288 244 OFFCURVE",
"294 238 OFFCURVE",
"294 231 CURVE SMOOTH",
"294 224 OFFCURVE",
"288 218 OFFCURVE",
"281 218 CURVE SMOOTH"
);
},
{
closed = 1;
nodes = (
"244 380 OFFCURVE",
"238 386 OFFCURVE",
"238 393 CURVE SMOOTH",
"238 400 OFFCURVE",
"244 406 OFFCURVE",
"251 406 CURVE SMOOTH",
"258 406 OFFCURVE",
"264 400 OFFCURVE",
"264 393 CURVE SMOOTH",
"264 386 OFFCURVE",
"258 380 OFFCURVE",
"251 380 CURVE SMOOTH"
);
}
);
width = 478;
}
);
},
{
glyphname = "waw-ar";
layers = (
{
anchors = (
{
name = fatha;
position = "{390, 729}";
}
);
backgroundImage = {
alpha = 100;
imagePath = "1/image-0056.jpg";
transform = "{20, 0, 0, 20, -15140, -5096}";
};
layerId = m01;
paths = (
{
closed = 1;
nodes = (
"738 22 OFFCURVE",
"740 42 OFFCURVE",
"748 68 CURVE SMOOTH",
"788 194 OFFCURVE",
"678 610 OFFCURVE",
"456 610 CURVE SMOOTH",
"284 610 OFFCURVE",
"180 406 OFFCURVE",
"212 266 CURVE SMOOTH",
"244 130 OFFCURVE",
"444 132 OFFCURVE",
"584 146 CURVE",
"588 138 OFFCURVE",
"588 136 OFFCURVE",
"588 128 CURVE",
"438 108 OFFCURVE",
"282 110 OFFCURVE",
"190 192 CURVE",
"142 118 OFFCURVE",
"84 86 OFFCURVE",
"20 52 CURVE",
"154 -42 OFFCURVE",
"622 4 OFFCURVE",
"670 12 CURVE SMOOTH"
);
},
{
closed = 1;
nodes = (
"460 356 OFFCURVE",
"454 362 OFFCURVE",
"454 369 CURVE SMOOTH",
"454 376 OFFCURVE",
"460 382 OFFCURVE",
"467 382 CURVE SMOOTH",
"474 382 OFFCURVE",
"480 376 OFFCURVE",
"480 369 CURVE SMOOTH",
"480 362 OFFCURVE",
"474 356 OFFCURVE",
"467 356 CURVE SMOOTH"
);
}
);
width = 776;
}
);
unicode = 0648;
},
{
glyphname = "waw-ar.1";
layers = (
{
anchors = (
{
name = fatha;
position = "{390, 669}";
}
);
backgroundImage = {
alpha = 100;
imagePath = "1/image-0056.jpg";
transform = "{20, 0, 0, 20, -15140, -5156}";
};
layerId = m01;
paths = (
{
closed = 1;
nodes = (
"514 -64 OFFCURVE",
"636 -62 OFFCURVE",
"718 -22 CURVE SMOOTH",
"750 -6 OFFCURVE",
"788 20 OFFCURVE",
"784 126 CURVE SMOOTH",
"776 314 OFFCURVE",
"618 570 OFFCURVE",
"472 570 CURVE SMOOTH",
"300 570 OFFCURVE",
"194 366 OFFCURVE",
"216 226 CURVE SMOOTH",
"240 68 OFFCURVE",
"468 72 OFFCURVE",
"608 88 CURVE",
"612 80 OFFCURVE",
"612 78 OFFCURVE",
"612 70 CURVE",
"462 48 OFFCURVE",
"296 56 OFFCURVE",
"204 138 CURVE",
"146 66 OFFCURVE",
"76 38 OFFCURVE",
"20 24 CURVE",
"92 -32 OFFCURVE",
"276 -58 OFFCURVE",
"426 -62 CURVE SMOOTH"
);
},
{
closed = 1;
nodes = (
"468 312 OFFCURVE",
"462 318 OFFCURVE",
"462 325 CURVE SMOOTH",
"462 332 OFFCURVE",
"468 338 OFFCURVE",
"475 338 CURVE SMOOTH",
"482 338 OFFCURVE",
"488 332 OFFCURVE",
"488 325 CURVE SMOOTH",
"488 318 OFFCURVE",
"482 312 OFFCURVE",
"475 312 CURVE SMOOTH"
);
}
);
width = 804;
}
);
},
{
glyphname = "waw-ar.fina";
layers = (
{
layerId = m01;
paths = (
{
closed = 1;
nodes = (
"504 -150 OFFCURVE",
"616 -140 OFFCURVE",
"686 -106 CURVE SMOOTH",
"730 -84 OFFCURVE",
"756 -68 OFFCURVE",
"762 38 CURVE SMOOTH",
"774 226 OFFCURVE",
"608 482 OFFCURVE",
"462 482 CURVE SMOOTH",
"306 482 OFFCURVE",
"190 278 OFFCURVE",
"222 138 CURVE SMOOTH",
"254 2 OFFCURVE",
"458 -6 OFFCURVE",
"598 8 CURVE",
"602 0 OFFCURVE",
"602 -2 OFFCURVE",
"602 -10 CURVE",
"452 -30 OFFCURVE",
"298 -18 OFFCURVE",
"206 64 CURVE",
"148 -10 OFFCURVE",
"84 -30 OFFCURVE",
"20 -58 CURVE",
"92 -110 OFFCURVE",
"266 -144 OFFCURVE",
"416 -148 CURVE SMOOTH"
);
},
{
closed = 1;
nodes = (
"452 230 OFFCURVE",
"446 236 OFFCURVE",
"446 243 CURVE SMOOTH",
"446 250 OFFCURVE",
"452 256 OFFCURVE",
"459 256 CURVE SMOOTH",
"466 256 OFFCURVE",
"472 250 OFFCURVE",
"472 243 CURVE SMOOTH",
"472 236 OFFCURVE",
"466 230 OFFCURVE",
"459 230 CURVE SMOOTH"
);
}
);
width = 756;
}
);
},
{
glyphname = "waw-ar.fina.1";
layers = (
{
layerId = m01;
paths = (
{
closed = 1;
nodes = (
"738 -116 OFFCURVE",
"740 -96 OFFCURVE",
"748 -70 CURVE SMOOTH",
"788 56 OFFCURVE",
"678 472 OFFCURVE",
"456 472 CURVE SMOOTH",
"284 472 OFFCURVE",
"180 268 OFFCURVE",
"212 128 CURVE SMOOTH",
"244 -8 OFFCURVE",
"444 -6 OFFCURVE",
"584 8 CURVE",
"588 0 OFFCURVE",
"588 -2 OFFCURVE",
"588 -10 CURVE",
"438 -30 OFFCURVE",
"282 -28 OFFCURVE",
"190 54 CURVE",
"142 -20 OFFCURVE",
"84 -52 OFFCURVE",
"20 -86 CURVE",
"154 -180 OFFCURVE",
"622 -134 OFFCURVE",
"670 -126 CURVE SMOOTH"
);
},
{
closed = 1;
nodes = (
"460 218 OFFCURVE",
"454 224 OFFCURVE",
"454 231 CURVE SMOOTH",
"454 238 OFFCURVE",
"460 244 OFFCURVE",
"467 244 CURVE SMOOTH",
"474 244 OFFCURVE",
"480 238 OFFCURVE",
"480 231 CURVE SMOOTH",
"480 224 OFFCURVE",
"474 218 OFFCURVE",
"467 218 CURVE SMOOTH"
);
}
);
width = 740;
}
);
},
{
glyphname = "waw-ar.fina.alt";
layers = (
{
anchors = (
{
name = fatha;
position = "{424, 600}";
}
);
backgroundImage = {
alpha = 100;
imagePath = "1/image-0056.jpg";
transform = "{20, 0, 0, 20, -9512, -5199}";
};
layerId = m01;
paths = (
{
closed = 1;
nodes = (
"718 -146 OFFCURVE",
"784 -62 OFFCURVE",
"742 30 CURVE SMOOTH",
"702 118 OFFCURVE",
"672 212 OFFCURVE",
"618 300 CURVE SMOOTH",
"578 364 OFFCURVE",
"534 436 OFFCURVE",
"436 436 CURVE SMOOTH",
"286 436 OFFCURVE",
"174 250 OFFCURVE",
"206 110 CURVE SMOOTH",
"238 -26 OFFCURVE",
"434 -50 OFFCURVE",
"574 -36 CURVE",
"578 -44 OFFCURVE",
"578 -46 OFFCURVE",
"578 -54 CURVE",
"428 -74 OFFCURVE",
"256 -44 OFFCURVE",
"164 38 CURVE",
"136 -32 OFFCURVE",
"74 -72 OFFCURVE",
"10 -86 CURVE",
"204 -226 OFFCURVE",
"580 -178 OFFCURVE",
"660 -160 CURVE SMOOTH"
);
},
{
closed = 1;
nodes = (
"450 178 OFFCURVE",
"444 184 OFFCURVE",
"444 191 CURVE SMOOTH",
"444 198 OFFCURVE",
"450 204 OFFCURVE",
"457 204 CURVE SMOOTH",
"464 204 OFFCURVE",
"470 198 OFFCURVE",
"470 191 CURVE SMOOTH",
"470 184 OFFCURVE",
"464 178 OFFCURVE",
"457 178 CURVE SMOOTH"
);
},
{
closed = 1;
nodes = (
"623 0 LINE",
"837 0 LINE",
"814 -29 LINE",
"806 167 LINE",
"833 127 LINE",
"725 104 OFFCURVE",
"687 165 OFFCURVE",
"663 215 CURVE",
"669 -43 LINE"
);
}
);
width = 702;
}
);
},
{
glyphname = "kashida-ar";
layers = (
{
layerId = m01;
paths = (
{
closed = 1;
nodes = (
"-60 0 LINE",
"286 0 LINE",
"220 -50 LINE",
"220 180 LINE",
"286 132 LINE",
"-60 132 LINE",
"0 178 LINE",
"0 -56 LINE"
);
}
);
width = 200;
}
);
unicode = 0640;
},
{
glyphname = "behDotless_reh-ar";
layers = (
{
anchors = (
{
name = bottom_1;
position = "{686, 34}";
},
{
name = caret_1;
position = "{544, 0}";
},
{
name = fatha_1;
position = "{646, 702}";
},
{
name = fatha_2;
position = "{426, 376}";
},
{
name = top_1;
position = "{614, 474}";
},
{
name = top_2;
position = "{324, 200}";
}
);
layerId = m01;
paths = (
{
closed = 1;
nodes = (
"658 520 OFFCURVE",
"600 436 OFFCURVE",
"530 368 CURVE",
"514 564 LINE",
"564 410 OFFCURVE",
"584 282 OFFCURVE",
"576 84 CURVE",
"636 132 LINE",
"518 132 LINE",
"552 242 LINE",
"552 -30 LINE",
"514 0 LINE",
"682 0 LINE",
"704 0 OFFCURVE",
"722 14 OFFCURVE",
"722 36 CURVE SMOOTH",
"726 358 OFFCURVE",
"714 442 OFFCURVE",
"652 750 CURVE",
"714 618 LINE"
);
},
{
closed = 1;
nodes = (
"434 288 OFFCURVE",
"424 284 OFFCURVE",
"414 276 CURVE SMOOTH",
"382 250 OFFCURVE",
"272 128 OFFCURVE",
"222 56 CURVE SMOOTH",
"214 46 OFFCURVE",
"202 28 OFFCURVE",
"220 22 CURVE SMOOTH",
"276 2 OFFCURVE",
"364 -2 OFFCURVE",
"430 0 CURVE",
"434 -4 OFFCURVE",
"436 -14 OFFCURVE",
"436 -18 CURVE",
"364 -30 OFFCURVE",
"258 -24 OFFCURVE",
"180 4 CURVE",
"144 -38 OFFCURVE",
"74 -102 OFFCURVE",
"20 -126 CURVE",
"74 -170 OFFCURVE",
"416 -192 OFFCURVE",
"560 -154 CURVE SMOOTH",
"596 -144 OFFCURVE",
"636 -120 OFFCURVE",
"642 -84 CURVE SMOOTH",
"664 52 OFFCURVE",
"548 214 OFFCURVE",
"454 276 CURVE SMOOTH"
);
}
);
width = 743;
}
);
},
{
glyphname = "behDotless_seen-ar.init";
layers = (
{
anchors = (
{
name = bottom_1;
position = "{566, -5}";
},
{
name = caret_1;
position = "{451, 0}";
},
{
name = damma_2;
position = "{-26, 195}";
},
{
name = fatha_1;
position = "{596, 800}";
},
{
name = kasra_1;
position = "{714, -166}";
},
{
name = top_1;
position = "{516, 611}";
}
);
backgroundImage = {
alpha = 100;
imagePath = "1/image-0056.jpg";
locked = "1";
transform = "{20, 0, 0, 20, -11698, -7050}";
};
guideLines = (
{
position = "{776, 132}";
}
);
layerId = m01;
paths = (
{
closed = 1;
nodes = (
"408 0 LINE",
"576 0 LINE",
"598 0 OFFCURVE",
"614 14 OFFCURVE",
"614 36 CURVE SMOOTH",
"614 358 OFFCURVE",
"618 434 OFFCURVE",
"572 750 CURVE",
"608 763 LINE",
"552 665 OFFCURVE",
"494 556 OFFCURVE",
"424 488 CURVE",
"443 564 LINE",
"485 411 OFFCURVE",
"476 282 OFFCURVE",
"470 84 CURVE",
"530 132 LINE",
"412 132 LINE",
"446 -30 LINE"
);
},
{
closed = 1;
nodes = (
"443 246 OFFCURVE",
"438 454 OFFCURVE",
"433 571 CURVE",
"468 572 LINE",
"418 467 OFFCURVE",
"352 363 OFFCURVE",
"291 309 CURVE",
"308 417 LINE",
"308 333 OFFCURVE",
"322 249 OFFCURVE",
"353 165 CURVE",
"301 258 OFFCURVE",
"272 413 OFFCURVE",
"245 556 CURVE",
"278 564 LINE",
"250 435 OFFCURVE",
"192 303 OFFCURVE",
"138 227 CURVE",
"150 339 LINE",
"160 286 OFFCURVE",
"175 233 OFFCURVE",
"206 180 CURVE",
"143 252 OFFCURVE",
"105 355 OFFCURVE",
"72 452 CURVE",
"125 514 LINE",
"86 417 OFFCURVE",
"37 250 OFFCURVE",
"-29 180 CURVE",
"-47 310 LINE",
"-23 242 OFFCURVE",
"17 163 OFFCURVE",
"45 130 CURVE",
"67 70 LINE",
"91 132 LINE",
"-40 132 LINE",
"-20 161 LINE",
"-20 -26 LINE",
"-40 0 LINE",
"496 0 LINE",
"494 -73 LINE",
"501 193 LINE",
"527 154 LINE",
"499 151 LINE"
);
}
);
width = 634;
}
);
},
{
glyphname = "behDotless_waw-ar";
layers = (
{
anchors = (
{
name = bottom_1;
position = "{850, 98}";
},
{
name = caret_1;
position = "{664, 0}";
},
{
name = fatha_1;
position = "{822, 760}";
},
{
name = fatha_2;
position = "{434, 700}";
},
{
name = top_1;
position = "{746, 550}";
}
);
components = (
{
name = "waw-ar.fina.alt";
transform = "{1, 0, 0, 1, 10, 100}";
}
);
layerId = m01;
paths = (
{
closed = 1;
nodes = (
"682 60 LINE",
"850 60 LINE",
"872 60 OFFCURVE",
"888 74 OFFCURVE",
"888 96 CURVE SMOOTH",
"888 418 OFFCURVE",
"842 494 OFFCURVE",
"776 730 CURVE",
"842 680 LINE",
"786 582 OFFCURVE",
"728 498 OFFCURVE",
"658 430 CURVE",
"650 504 LINE",
"720 364 OFFCURVE",
"736 342 OFFCURVE",
"736 144 CURVE",
"804 192 LINE",
"686 192 LINE",
"720 222 LINE",
"720 30 LINE"
);
},
{
closed = 1;
nodes = (
"802 136 LINE",
"798 222 LINE",
"724 222 OFFCURVE",
"694 272 OFFCURVE",
"674 314 CURVE",
"678 132 LINE"
);
}
);
width = 908;
}
);
},
{
glyphname = "lam_alefMaksura-ar.fina";
layers = (
{
anchors = (
{
name = bottom_2;
position = "{784, -252}";
},
{
name = caret_1;
position = "{190, 0}";
},
{
name = fatha_1;
position = "{58, 1102}";
},
{
name = fatha_2;
position = "{82, 14}";
}
);
layerId = m01;
paths = (
{
closed = 1;
nodes = (
"666 -308 OFFCURVE",
"722 -276 OFFCURVE",
"718 -226 CURVE SMOOTH",
"712 -162 OFFCURVE",
"688 -106 OFFCURVE",
"658 -50 CURVE SMOOTH",
"650 -36 OFFCURVE",
"632 -26 OFFCURVE",
"616 -26 CURVE SMOOTH",
"532 -26 OFFCURVE",
"458 -26 OFFCURVE",
"352 -26 CURVE SMOOTH",
"312 -26 OFFCURVE",
"316 30 OFFCURVE",
"316 70 CURVE",
"282 0 LINE",
"462 0 LINE",
"462 172 LINE",
"506 132 LINE",
"424 148 OFFCURVE",
"316 138 OFFCURVE",
"316 292 CURVE SMOOTH",
"316 522 OFFCURVE",
"354 1068 OFFCURVE",
"296 1242 CURVE",
"264 1156 OFFCURVE",
"222 1078 OFFCURVE",
"172 1038 CURVE",
"204 940 OFFCURVE",
"210 698 OFFCURVE",
"206 576 CURVE SMOOTH",
"200 402 OFFCURVE",
"182 74 OFFCURVE",
"194 -118 CURVE SMOOTH",
"196 -144 OFFCURVE",
"200 -154 OFFCURVE",
"226 -158 CURVE SMOOTH",
"336 -172 OFFCURVE",
"438 -168 OFFCURVE",
"520 -164 CURVE",
"526 -178 OFFCURVE",
"530 -180 OFFCURVE",
"530 -194 CURVE",
"468 -194 OFFCURVE",
"272 -212 OFFCURVE",
"182 -174 CURVE",
"154 -216 OFFCURVE",
"94 -258 OFFCURVE",
"4 -302 CURVE",
"128 -340 OFFCURVE",
"532 -330 OFFCURVE",
"620 -316 CURVE SMOOTH"
);
}
);
width = 360;
}
);
},
{
glyphname = "ain_waw-ar";
layers = (
{
anchors = (
{
name = caret_1;
position = "{689, 0}";
},
{
name = fatha_1;
position = "{820, 618}";
},
{
name = fatha_2;
position = "{394, 640}";
}
);
backgroundImage = {
alpha = 100;
imagePath = "1/image-0056.jpg";
transform = "{20, 0, 0, 20, -9512, -5199}";
};
layerId = m01;
paths = (
{
closed = 1;
nodes = (
"728 -96 OFFCURVE",
"779 -14 OFFCURVE",
"737 78 CURVE SMOOTH",
"697 166 OFFCURVE",
"683 212 OFFCURVE",
"629 300 CURVE SMOOTH",
"589 364 OFFCURVE",
"521 476 OFFCURVE",
"403 476 CURVE SMOOTH",
"253 476 OFFCURVE",
"124 274 OFFCURVE",
"156 134 CURVE SMOOTH",
"188 -2 OFFCURVE",
"374 -33 OFFCURVE",
"563 -15 CURVE",
"567 -23 OFFCURVE",
"567 -25 OFFCURVE",
"567 -33 CURVE",
"417 -53 OFFCURVE",
"230 -29 OFFCURVE",
"144 57 CURVE",
"96 0 OFFCURVE",
"10 -46 OFFCURVE",
"-54 -60 CURVE",
"140 -200 OFFCURVE",
"485 -167 OFFCURVE",
"584 -138 CURVE SMOOTH"
);
},
{
closed = 1;
nodes = (
"450 178 OFFCURVE",
"444 184 OFFCURVE",
"444 191 CURVE SMOOTH",
"444 198 OFFCURVE",
"450 204 OFFCURVE",
"457 204 CURVE SMOOTH",
"464 204 OFFCURVE",
"470 198 OFFCURVE",
"470 191 CURVE SMOOTH",
"470 184 OFFCURVE",
"464 178 OFFCURVE",
"457 178 CURVE SMOOTH"
);
},
{
closed = 1;
nodes = (
"1025 -4 OFFCURVE",
"1537 -4 OFFCURVE",
"1864 0 CURVE",
"1927 49 OFFCURVE",
"2001 82 OFFCURVE",
"2080 106 CURVE",
"1864 98 OFFCURVE",
"1324 109 OFFCURVE",
"1130 170 CURVE SMOOTH",
"944 228 OFFCURVE",
"789 371 OFFCURVE",
"848 442 CURVE SMOOTH",
"956 571 LINE",
"942 584 LINE",
"728 346 LINE SMOOTH",
"655 265 OFFCURVE",
"730 134 OFFCURVE",
"828 114 CURVE",
"860 132 LINE",
"680 132 LINE",
"680 -1 LINE"
);
},
{
closed = 1;
nodes = (
"720 134 OFFCURVE",
"686 208 OFFCURVE",
"629 300 CURVE",
"655 17 LINE",
"807 15 LINE",
"807 130 LINE"
);
}
);
width = 2100;
}
);
},
{
glyphname = "fehDotless_alef-ar";
layers = (
{
anchors = (
{
name = caret_1;
position = "{208, 0}";
},
{
name = top.hamza_2;
position = "{298, 1124}";
},
{
name = top_1;
position = "{278, 596}";
}
);
layerId = m01;
paths = (
{
closed = 1;
nodes = (
"356 -16 OFFCURVE",
"546 -4 OFFCURVE",
"630 8 CURVE SMOOTH",
"708 18 OFFCURVE",
"732 52 OFFCURVE",
"732 106 CURVE SMOOTH",
"730 268 OFFCURVE",
"634 640 OFFCURVE",
"416 640 CURVE SMOOTH",
"264 640 OFFCURVE",
"150 464 OFFCURVE",
"172 314 CURVE SMOOTH",
"200 120 OFFCURVE",
"464 154 OFFCURVE",
"548 148 CURVE",
"552 144 OFFCURVE",
"554 140 OFFCURVE",
"554 132 CURVE",
"340 132 OFFCURVE",
"140 132 OFFCURVE",
"140 362 CURVE SMOOTH",
"140 698 OFFCURVE",
"218 1030 OFFCURVE",
"178 1364 CURVE",
"214 1346 LINE",
"156 1238 OFFCURVE",
"72 1128 OFFCURVE",
"-20 1040 CURVE",
"30 1220 LINE",
"38 1128 OFFCURVE",
"56 1036 OFFCURVE",
"56 944 CURVE SMOOTH",
"56 668 OFFCURVE",
"24 454 OFFCURVE",
"20 178 CURVE SMOOTH",
"18 24 OFFCURVE",
"92 -16 OFFCURVE",
"194 -16 CURVE SMOOTH"
);
},
{
closed = 1;
nodes = (
"410 398 OFFCURVE",
"404 404 OFFCURVE",
"404 411 CURVE SMOOTH",
"404 418 OFFCURVE",
"410 424 OFFCURVE",
"417 424 CURVE SMOOTH",
"424 424 OFFCURVE",
"430 418 OFFCURVE",
"430 411 CURVE SMOOTH",
"430 404 OFFCURVE",
"424 398 OFFCURVE",
"417 398 CURVE SMOOTH"
);
}
);
width = 752;
}
);
},
{
glyphname = "fehDotless_alefMaksura-ar";
layers = (
{
anchors = (
{
name = bottom_1;
position = "{958, 290}";
},
{
name = bottom_2;
position = "{544, -110}";
},
{
name = caret_1;
position = "{400, 0}";
},
{
name = top_1;
position = "{452, 692}";
},
{
name = top_2;
position = "{132, 382}";
}
);
layerId = m01;
paths = (
{
closed = 1;
nodes = (
"420 -4 OFFCURVE",
"1512 -14 OFFCURVE",
"1868 34 CURVE SMOOTH",
"1876 36 OFFCURVE",
"1882 42 OFFCURVE",
"1890 50 CURVE SMOOTH",
"1922 82 OFFCURVE",
"1964 112 OFFCURVE",
"2030 136 CURVE",
"1718 110 OFFCURVE",
"830 98 OFFCURVE",
"412 122 CURVE SMOOTH",
"322 128 OFFCURVE",
"250 156 OFFCURVE",
"220 184 CURVE SMOOTH",
"214 190 OFFCURVE",
"214 204 OFFCURVE",
"224 200 CURVE SMOOTH",
"232 196 OFFCURVE",
"238 188 OFFCURVE",
"246 184 CURVE SMOOTH",
"286 160 OFFCURVE",
"342 142 OFFCURVE",
"400 140 CURVE SMOOTH",
"542 134 OFFCURVE",
"722 146 OFFCURVE",
"806 156 CURVE SMOOTH",
"846 160 OFFCURVE",
"908 180 OFFCURVE",
"916 226 CURVE SMOOTH",
"962 492 OFFCURVE",
"814 786 OFFCURVE",
"626 786 CURVE SMOOTH",
"432 786 OFFCURVE",
"286 406 OFFCURVE",
"466 318 CURVE SMOOTH",
"546 280 OFFCURVE",
"682 294 OFFCURVE",
"758 306 CURVE",
"768 292 LINE",
"712 278 OFFCURVE",
"538 268 OFFCURVE",
"458 294 CURVE SMOOTH",
"380 318 OFFCURVE",
"368 424 OFFCURVE",
"262 424 CURVE SMOOTH",
"132 424 OFFCURVE",
"20 270 OFFCURVE",
"20 134 CURVE SMOOTH",
"20 22 OFFCURVE",
"142 20 OFFCURVE",
"206 14 CURVE SMOOTH"
);
},
{
closed = 1;
nodes = (
"632 534 OFFCURVE",
"626 540 OFFCURVE",
"626 547 CURVE SMOOTH",
"626 554 OFFCURVE",
"632 560 OFFCURVE",
"639 560 CURVE SMOOTH",
"646 560 OFFCURVE",
"652 554 OFFCURVE",
"652 547 CURVE SMOOTH",
"652 540 OFFCURVE",
"646 534 OFFCURVE",
"639 534 CURVE SMOOTH"
);
}
);
width = 2030;
}
);
},
{
glyphname = "lam_lam_heh-ar";
layers = (
{
anchors = (
{
name = caret_1;
position = "{495, 0}";
},
{
name = caret_2;
position = "{645, 0}";
},
{
name = fatha_2;
position = "{388, 1013}";
},
{
name = kasra_1;
position = "{649, 112}";
},
{
name = kasra_3;
position = "{391, -76}";
}
);
backgroundImage = {
alpha = 100;
imagePath = "1/image-0056.jpg";
locked = "1";
transform = "{20, 0, 0, 20, -8550, -3239}";
};
layerId = m01;
paths = (
{
closed = 1;
nodes = (
"572 212 LINE",
"591 171 LINE",
"543 171 OFFCURVE",
"477 173 OFFCURVE",
"477 248 CURVE SMOOTH",
"478 443 OFFCURVE",
"475 638 OFFCURVE",
"470 833 CURVE",
"529 833 LINE",
"475 735 OFFCURVE",
"375 584 OFFCURVE",
"302 532 CURVE",
"332 706 LINE",
"331 439 LINE",
"418 540 LINE",
"259 508 OFFCURVE",
"20 419 OFFCURVE",
"20 217 CURVE SMOOTH",
"20 61 OFFCURVE",
"148 -1 OFFCURVE",
"279 0 CURVE SMOOTH",
"385 1 OFFCURVE",
"492 1 OFFCURVE",
"598 0 CURVE",
"572 -81 LINE"
);
},
{
closed = 1;
nodes = (
"311 277 OFFCURVE",
"305 283 OFFCURVE",
"305 290 CURVE SMOOTH",
"305 297 OFFCURVE",
"311 303 OFFCURVE",
"318 303 CURVE SMOOTH",
"325 303 OFFCURVE",
"331 297 OFFCURVE",
"331 290 CURVE SMOOTH",
"331 283 OFFCURVE",
"325 277 OFFCURVE",
"318 277 CURVE SMOOTH"
);
},
{
closed = 1;
nodes = (
"424 0 LINE",
"704 0 LINE",
"689 -45 LINE",
"689 197 LINE",
"749 171 LINE",
"661 171 OFFCURVE",
"625 168 OFFCURVE",
"625 300 CURVE SMOOTH",
"625 572 OFFCURVE",
"636 1010 OFFCURVE",
"579 1312 CURVE",
"629 1210 LINE",
"588 1118 OFFCURVE",
"524 987 OFFCURVE",
"447 936 CURVE",
"426 1119 LINE",
"463 1035 OFFCURVE",
"509 890 OFFCURVE",
"510 746 CURVE SMOOTH",
"513 83 LINE",
"578 132 LINE",
"409 132 LINE",
"471 150 LINE",
"471 -34 LINE"
);
},
{
closed = 1;
nodes = (
"584 0 LINE",
"744 0 LINE SMOOTH",
"782 0 OFFCURVE",
"809 24 OFFCURVE",
"809 50 CURVE SMOOTH",
"809 192 OFFCURVE",
"788 472 OFFCURVE",
"786 652 CURVE SMOOTH",
"784 884 OFFCURVE",
"785 1118 OFFCURVE",
"753 1350 CURVE",
"791 1372 LINE",
"741 1281 OFFCURVE",
"693 1173 OFFCURVE",
"621 1113 CURVE",
"618 1149 LINE",
"639 1089 OFFCURVE",
"662 1029 OFFCURVE",
"662 900 CURVE SMOOTH",
"662 710 OFFCURVE",
"670 382 OFFCURVE",
"664 132 CURVE",
"586 134 LINE",
"612 180 LINE",
"612 -34 LINE"
);
}
);
width = 829;
}
);
},
{
glyphname = "meem_noonghunna-ar";
layers = (
{
anchors = (
{
name = caret_1;
position = "{410, 0}";
},
{
name = fatha_2;
position = "{137, 452}";
},
{
name = kasra_1;
position = "{665, -127}";
},
{
name = top_2;
position = "{62, 266}";
}
);
backgroundImage = {
alpha = 100;
imagePath = "1/image-0056.jpg";
locked = "1";
transform = "{20, 0, 0, 20, -7727, -7014}";
};
layerId = m01;
paths = (
{
closed = 1;
nodes = (
"-120 -849 LINE",
"37 -899 OFFCURVE",
"252 -909 OFFCURVE",
"413 -886 CURVE SMOOTH",
"441 -882 OFFCURVE",
"454 -862 OFFCURVE",
"453 -838 CURVE SMOOTH",
"439 -592 OFFCURVE",
"432 -245 OFFCURVE",
"442 -50 CURVE SMOOTH",
"455 202 OFFCURVE",
"391 307 OFFCURVE",
"99 383 CURVE",
"150 408 LINE",
"116 324 OFFCURVE",
"64 234 OFFCURVE",
"-22 150 CURVE",
"5 189 LINE",
"115 180 OFFCURVE",
"260 127 OFFCURVE",
"295 6 CURVE SMOOTH",
"337 -140 OFFCURVE",
"326 -478 OFFCURVE",
"324 -728 CURVE",
"226 -737 OFFCURVE",
"113 -716 OFFCURVE",
"27 -682 CURVE",
"120 -663 LINE",
"75 -747 OFFCURVE",
"-14 -838 OFFCURVE",
"-94 -890 CURVE"
);
},
{
closed = 1;
nodes = (
"919 21 OFFCURVE",
"964 66 OFFCURVE",
"950 183 CURVE SMOOTH",
"930 345 OFFCURVE",
"835 541 OFFCURVE",
"693 541 CURVE SMOOTH",
"543 541 OFFCURVE",
"419 379 OFFCURVE",
"413 195 CURVE SMOOTH",
"409 87 OFFCURVE",
"515 21 OFFCURVE",
"717 21 CURVE SMOOTH"
);
},
{
closed = 1;
nodes = (
"709 239 OFFCURVE",
"703 245 OFFCURVE",
"703 252 CURVE SMOOTH",
"703 259 OFFCURVE",
"709 265 OFFCURVE",
"716 265 CURVE SMOOTH",
"723 265 OFFCURVE",
"729 259 OFFCURVE",
"729 252 CURVE SMOOTH",
"729 245 OFFCURVE",
"723 239 OFFCURVE",
"716 239 CURVE SMOOTH"
);
}
);
width = 962;
}
);
},
{
glyphname = "meem_noonghunna-ar.1";
layers = (
{
anchors = (
{
name = caret_1;
position = "{410, -20}";
},
{
name = fatha_2;
position = "{197, 432}";
},
{
name = kasra_1;
position = "{721, -92}";
},
{
name = top_2;
position = "{107, 226}";
}
);
backgroundImage = {
alpha = 100;
imagePath = "1/image-0056.jpg";
transform = "{20, 0, 0, 20, -14787, -3234}";
};
layerId = m01;
paths = (
{
closed = 1;
nodes = (
"-120 -836 LINE",
"37 -886 OFFCURVE",
"258 -914 OFFCURVE",
"419 -891 CURVE SMOOTH",
"447 -887 OFFCURVE",
"460 -867 OFFCURVE",
"459 -843 CURVE SMOOTH",
"449 -597 OFFCURVE",
"442 -275 OFFCURVE",
"448 -80 CURVE SMOOTH",
"456 172 OFFCURVE",
"431 259 OFFCURVE",
"99 363 CURVE",
"222 378 LINE",
"188 294 OFFCURVE",
"112 204 OFFCURVE",
"26 120 CURVE",
"5 154 LINE",
"115 145 OFFCURVE",
"269 97 OFFCURVE",
"304 -24 CURVE SMOOTH",
"346 -170 OFFCURVE",
"326 -473 OFFCURVE",
"324 -723 CURVE",
"226 -732 OFFCURVE",
"113 -711 OFFCURVE",
"27 -677 CURVE",
"131 -658 LINE",
"86 -742 OFFCURVE",
"-14 -833 OFFCURVE",
"-94 -885 CURVE"
);
},
{
closed = 1;
nodes = (
"919 2 OFFCURVE",
"944 36 OFFCURVE",
"930 153 CURVE SMOOTH",
"910 315 OFFCURVE",
"841 501 OFFCURVE",
"699 501 CURVE SMOOTH",
"569 501 OFFCURVE",
"441 348 OFFCURVE",
"413 165 CURVE SMOOTH",
"404 107 OFFCURVE",
"515 -20 OFFCURVE",
"717 -9 CURVE SMOOTH"
);
},
{
closed = 1;
nodes = (
"709 209 OFFCURVE",
"703 215 OFFCURVE",
"703 222 CURVE SMOOTH",
"703 229 OFFCURVE",
"709 235 OFFCURVE",
"716 235 CURVE SMOOTH",
"723 235 OFFCURVE",
"729 229 OFFCURVE",
"729 222 CURVE SMOOTH",
"729 215 OFFCURVE",
"723 209 OFFCURVE",
"716 209 CURVE SMOOTH"
);
}
);
width = 953;
}
);
},
{
glyphname = .notdef;
layers = (
{
layerId = m01;
paths = (
{
closed = 1;
nodes = (
"1000 -800 LINE",
"1000 1200 LINE",
"200 1200 LINE",
"200 -800 LINE"
);
},
{
closed = 1;
nodes = (
"948 1084 LINE",
"852 1116 LINE",
"252 -684 LINE",
"348 -716 LINE"
);
},
{
closed = 1;
nodes = (
"348 1116 LINE",
"252 1084 LINE",
"852 -716 LINE",
"948 -684 LINE"
);
},
{
closed = 1;
nodes = (
"300 1100 LINE",
"900 1100 LINE",
"900 -700 LINE",
"300 -700 LINE"
);
}
);
width = 1200;
}
);
},
{
glyphname = "endofayah-ar";
layers = (
{
guideLines = (
{
angle = 90;
position = "{370, 208}";
},
{
angle = 180;
position = "{350, 104}";
},
{
angle = 202.5;
position = "{370, 208}";
},
{
angle = 247.5;
position = "{370, 208}";
},
{
angle = 225;
position = "{370, 208}";
}
);
layerId = m01;
paths = (
{
closed = 1;
nodes = (
"498 -22 OFFCURVE",
"600 82 OFFCURVE",
"600 208 CURVE SMOOTH",
"600 334 OFFCURVE",
"498 438 OFFCURVE",
"370 438 CURVE SMOOTH",
"244 438 OFFCURVE",
"140 334 OFFCURVE",
"140 208 CURVE SMOOTH",
"140 82 OFFCURVE",
"244 -22 OFFCURVE",
"370 -22 CURVE SMOOTH"
);
},
{
closed = 1;
nodes = (
"294 0 OFFCURVE",
"322 74 OFFCURVE",
"352 140 CURVE",
"362 128 LINE",
"346 130 OFFCURVE",
"332 136 OFFCURVE",
"320 146 CURVE",
"334 148 LINE",
"310 80 OFFCURVE",
"276 8 OFFCURVE",
"222 60 CURVE SMOOTH",
"170 114 OFFCURVE",
"242 148 OFFCURVE",
"310 172 CURVE",
"306 160 LINE",
"296 172 OFFCURVE",
"290 186 OFFCURVE",
"290 202 CURVE",
"302 190 LINE",
"236 160 OFFCURVE",
"162 132 OFFCURVE",
"162 208 CURVE SMOOTH",
"162 284 OFFCURVE",
"236 256 OFFCURVE",
"302 226 CURVE",
"290 214 LINE",
"292 232 OFFCURVE",
"298 248 OFFCURVE",
"308 260 CURVE",
"310 244 LINE",
"242 268 OFFCURVE",
"170 302 OFFCURVE",
"222 356 CURVE SMOOTH",
"276 408 OFFCURVE",
"310 336 OFFCURVE",
"334 268 CURVE",
"318 268 LINE",
"330 278 OFFCURVE",
"344 286 OFFCURVE",
"362 288 CURVE",
"352 276 LINE",
"322 342 OFFCURVE",
"294 416 OFFCURVE",
"370 416 CURVE SMOOTH",
"446 416 OFFCURVE",
"418 342 OFFCURVE",
"388 276 CURVE",
"380 288 LINE",
"394 286 OFFCURVE",
"406 280 OFFCURVE",
"418 272 CURVE",
"406 268 LINE",
"430 336 OFFCURVE",
"464 408 OFFCURVE",
"518 356 CURVE SMOOTH",
"570 302 OFFCURVE",
"498 268 OFFCURVE",
"430 244 CURVE",
"430 262 LINE",
"440 250 OFFCURVE",
"448 234 OFFCURVE",
"450 218 CURVE",
"438 226 LINE",
"504 256 OFFCURVE",
"578 284 OFFCURVE",
"578 208 CURVE SMOOTH",
"578 132 OFFCURVE",
"504 160 OFFCURVE",
"438 190 CURVE",
"450 200 LINE",
"448 184 OFFCURVE",
"442 168 OFFCURVE",
"432 156 CURVE",
"430 172 LINE",
"498 148 OFFCURVE",
"570 114 OFFCURVE",
"518 60 CURVE SMOOTH",
"464 8 OFFCURVE",
"430 80 OFFCURVE",
"406 148 CURVE",
"424 148 LINE",
"412 138 OFFCURVE",
"396 130 OFFCURVE",
"380 128 CURVE",
"388 140 LINE",
"418 74 OFFCURVE",
"446 0 OFFCURVE",
"370 0 CURVE SMOOTH"
);
},
{
closed = 1;
nodes = (
"400 156 OFFCURVE",
"422 180 OFFCURVE",
"422 208 CURVE SMOOTH",
"422 236 OFFCURVE",
"400 260 OFFCURVE",
"370 260 CURVE SMOOTH",
"342 260 OFFCURVE",
"318 236 OFFCURVE",
"318 208 CURVE SMOOTH",
"318 180 OFFCURVE",
"342 156 OFFCURVE",
"370 156 CURVE SMOOTH"
);
}
);
width = 740;
},
{
associatedMasterId = m01;
layerId = "38461C08-F54E-4BE4-9620-3C6CF5840E38";
name = "Color 1";
paths = (
{
closed = 1;
nodes = (
"498 -22 OFFCURVE",
"600 82 OFFCURVE",
"600 208 CURVE SMOOTH",
"600 334 OFFCURVE",
"498 438 OFFCURVE",
"370 438 CURVE SMOOTH",
"244 438 OFFCURVE",
"140 334 OFFCURVE",
"140 208 CURVE SMOOTH",
"140 82 OFFCURVE",
"244 -22 OFFCURVE",
"370 -22 CURVE SMOOTH"
);
}
);
width = 740;
},
{
associatedMasterId = m01;
layerId = "A1159DA2-F385-4606-A8B3-A130608730DA";
name = "Color 2";
paths = (
{
closed = 1;
nodes = (
"498 -22 OFFCURVE",
"600 82 OFFCURVE",
"600 208 CURVE SMOOTH",
"600 334 OFFCURVE",
"498 438 OFFCURVE",
"370 438 CURVE SMOOTH",
"244 438 OFFCURVE",
"140 334 OFFCURVE",
"140 208 CURVE SMOOTH",
"140 82 OFFCURVE",
"244 -22 OFFCURVE",
"370 -22 CURVE SMOOTH"
);
},
{
closed = 1;
nodes = (
"294 0 OFFCURVE",
"322 74 OFFCURVE",
"352 140 CURVE",
"362 128 LINE",
"346 130 OFFCURVE",
"332 136 OFFCURVE",
"320 146 CURVE",
"334 148 LINE",
"310 80 OFFCURVE",
"276 8 OFFCURVE",
"222 60 CURVE SMOOTH",
"170 114 OFFCURVE",
"242 148 OFFCURVE",
"310 172 CURVE",
"306 160 LINE",
"296 172 OFFCURVE",
"290 186 OFFCURVE",
"290 202 CURVE",
"302 190 LINE",
"236 160 OFFCURVE",
"162 132 OFFCURVE",
"162 208 CURVE SMOOTH",
"162 284 OFFCURVE",
"236 256 OFFCURVE",
"302 226 CURVE",
"290 214 LINE",
"292 232 OFFCURVE",
"298 248 OFFCURVE",
"308 260 CURVE",
"310 244 LINE",
"242 268 OFFCURVE",
"170 302 OFFCURVE",
"222 356 CURVE SMOOTH",
"276 408 OFFCURVE",
"310 336 OFFCURVE",
"334 268 CURVE",
"318 268 LINE",
"330 278 OFFCURVE",
"344 286 OFFCURVE",
"362 288 CURVE",
"352 276 LINE",
"322 342 OFFCURVE",
"294 416 OFFCURVE",
"370 416 CURVE SMOOTH",
"446 416 OFFCURVE",
"418 342 OFFCURVE",
"388 276 CURVE",
"380 288 LINE",
"394 286 OFFCURVE",
"406 280 OFFCURVE",
"418 272 CURVE",
"406 268 LINE",
"430 336 OFFCURVE",
"464 408 OFFCURVE",
"518 356 CURVE SMOOTH",
"570 302 OFFCURVE",
"498 268 OFFCURVE",
"430 244 CURVE",
"430 262 LINE",
"440 250 OFFCURVE",
"448 234 OFFCURVE",
"450 218 CURVE",
"438 226 LINE",
"504 256 OFFCURVE",
"578 284 OFFCURVE",
"578 208 CURVE SMOOTH",
"578 132 OFFCURVE",
"504 160 OFFCURVE",
"438 190 CURVE",
"450 200 LINE",
"448 184 OFFCURVE",
"442 168 OFFCURVE",
"432 156 CURVE",
"430 172 LINE",
"498 148 OFFCURVE",
"570 114 OFFCURVE",
"518 60 CURVE SMOOTH",
"464 8 OFFCURVE",
"430 80 OFFCURVE",
"406 148 CURVE",
"424 148 LINE",
"412 138 OFFCURVE",
"396 130 OFFCURVE",
"380 128 CURVE",
"388 140 LINE",
"418 74 OFFCURVE",
"446 0 OFFCURVE",
"370 0 CURVE SMOOTH"
);
},
{
closed = 1;
nodes = (
"400 156 OFFCURVE",
"422 180 OFFCURVE",
"422 208 CURVE SMOOTH",
"422 236 OFFCURVE",
"400 260 OFFCURVE",
"370 260 CURVE SMOOTH",
"342 260 OFFCURVE",
"318 236 OFFCURVE",
"318 208 CURVE SMOOTH",
"318 180 OFFCURVE",
"342 156 OFFCURVE",
"370 156 CURVE SMOOTH"
);
}
);
width = 740;
},
{
associatedMasterId = m01;
guideLines = (
{
angle = 90;
position = "{370, 208}";
},
{
angle = 180;
position = "{370, 208}";
},
{
angle = 202.5;
position = "{370, 208}";
},
{
angle = 247.5;
position = "{370, 208}";
},
{
angle = 225;
position = "{370, 208}";
}
);
layerId = "F1582E70-E757-409A-AE56-0C2D8B4714EF";
name = "Color 0";
paths = (
{
closed = 1;
nodes = (
"306 380 OFFCURVE",
"322 396 OFFCURVE",
"322 418 CURVE SMOOTH",
"322 438 OFFCURVE",
"306 454 OFFCURVE",
"286 454 CURVE SMOOTH",
"264 454 OFFCURVE",
"248 438 OFFCURVE",
"248 418 CURVE SMOOTH",
"248 396 OFFCURVE",
"264 380 OFFCURVE",
"286 380 CURVE SMOOTH"
);
},
{
closed = 1;
nodes = (
"476 380 OFFCURVE",
"492 396 OFFCURVE",
"492 418 CURVE SMOOTH",
"492 438 OFFCURVE",
"476 454 OFFCURVE",
"456 454 CURVE SMOOTH",
"434 454 OFFCURVE",
"418 438 OFFCURVE",
"418 418 CURVE SMOOTH",
"418 396 OFFCURVE",
"434 380 OFFCURVE",
"456 380 CURVE SMOOTH"
);
},
{
closed = 1;
nodes = (
"306 -38 OFFCURVE",
"322 -22 OFFCURVE",
"322 0 CURVE SMOOTH",
"322 20 OFFCURVE",
"306 36 OFFCURVE",
"286 36 CURVE SMOOTH",
"264 36 OFFCURVE",
"248 20 OFFCURVE",
"248 0 CURVE SMOOTH",
"248 -22 OFFCURVE",
"264 -38 OFFCURVE",
"286 -38 CURVE SMOOTH"
);
},
{
closed = 1;
nodes = (
"476 -38 OFFCURVE",
"492 -22 OFFCURVE",
"492 0 CURVE SMOOTH",
"492 20 OFFCURVE",
"476 36 OFFCURVE",
"456 36 CURVE SMOOTH",
"434 36 OFFCURVE",
"418 20 OFFCURVE",
"418 0 CURVE SMOOTH",
"418 -22 OFFCURVE",
"434 -38 OFFCURVE",
"456 -38 CURVE SMOOTH"
);
},
{
closed = 1;
nodes = (
"182 256 OFFCURVE",
"198 272 OFFCURVE",
"198 294 CURVE SMOOTH",
"198 314 OFFCURVE",
"182 330 OFFCURVE",
"162 330 CURVE SMOOTH",
"140 330 OFFCURVE",
"124 314 OFFCURVE",
"124 294 CURVE SMOOTH",
"124 272 OFFCURVE",
"140 256 OFFCURVE",
"162 256 CURVE SMOOTH"
);
},
{
closed = 1;
nodes = (
"182 86 OFFCURVE",
"198 102 OFFCURVE",
"198 124 CURVE SMOOTH",
"198 144 OFFCURVE",
"182 160 OFFCURVE",
"162 160 CURVE SMOOTH",
"140 160 OFFCURVE",
"124 144 OFFCURVE",
"124 124 CURVE SMOOTH",
"124 102 OFFCURVE",
"140 86 OFFCURVE",
"162 86 CURVE SMOOTH"
);
},
{
closed = 1;
nodes = (
"600 256 OFFCURVE",
"616 272 OFFCURVE",
"616 294 CURVE SMOOTH",
"616 314 OFFCURVE",
"600 330 OFFCURVE",
"580 330 CURVE SMOOTH",
"558 330 OFFCURVE",
"542 314 OFFCURVE",
"542 294 CURVE SMOOTH",
"542 272 OFFCURVE",
"558 256 OFFCURVE",
"580 256 CURVE SMOOTH"
);
},
{
closed = 1;
nodes = (
"600 86 OFFCURVE",
"616 102 OFFCURVE",
"616 124 CURVE SMOOTH",
"616 144 OFFCURVE",
"600 160 OFFCURVE",
"580 160 CURVE SMOOTH",
"558 160 OFFCURVE",
"542 144 OFFCURVE",
"542 124 CURVE SMOOTH",
"542 102 OFFCURVE",
"558 86 OFFCURVE",
"580 86 CURVE SMOOTH"
);
}
);
width = 740;
}
);
unicode = 06DD;
},
{
glyphname = "dotabove-ar";
layers = (
{
anchors = (
{
name = _top;
position = "{90, 50}";
}
);
layerId = m01;
paths = (
{
closed = 1;
nodes = (
"61 50 OFFCURVE",
"94 95 OFFCURVE",
"129 153 CURVE",
"111 163 LINE",
"78 107 OFFCURVE",
"45 62 OFFCURVE",
"1 12 CURVE",
"17 -2 LINE"
);
}
);
width = 128;
},
{
anchors = (
{
name = _top;
position = "{90, 50}";
}
);
associatedMasterId = m01;
layerId = "1951D83C-027C-46A2-BBE7-A485E6845D98";
name = "1 May 21, 00:30";
paths = (
{
closed = 1;
nodes = (
"128 152 LINE",
"112 164 LINE",
"0 12 LINE",
"16 0 LINE"
);
}
);
width = 128;
}
);
category = Mark;
subCategory = Nonspacing;
},
{
glyphname = "dotabove-ar.reh";
layers = (
{
anchors = (
{
name = _top;
position = "{90, 50}";
}
);
layerId = m01;
paths = (
{
closed = 1;
nodes = (
"62 42 OFFCURVE",
"104 91 OFFCURVE",
"142 142 CURVE",
"126 154 LINE",
"88 103 OFFCURVE",
"48 56 OFFCURVE",
"2 13 CURVE",
"16 -1 LINE"
);
}
);
width = 142;
},
{
anchors = (
{
name = _top;
position = "{90, 50}";
}
);
associatedMasterId = m01;
layerId = "54B3BE47-6985-45AE-A51D-CDE60F3B1871";
name = "1 May 21, 00:31";
paths = (
{
closed = 1;
nodes = (
"142 142 LINE",
"126 154 LINE",
"0 12 LINE",
"16 0 LINE"
);
},
{
closed = 0;
nodes = (
"134 148 LINE",
"96 97 OFFCURVE",
"55 49 OFFCURVE",
"9 6 CURVE"
);
}
);
width = 142;
}
);
category = Mark;
subCategory = Nonspacing;
},
{
glyphname = "dotcenter-ar";
layers = (
{
layerId = m01;
paths = (
{
closed = 0;
nodes = (
"0 2 LINE"
);
}
);
width = 1200;
}
);
category = Mark;
subCategory = Nonspacing;
},
{
glyphname = "threedotsdownabove-ar";
layers = (
{
anchors = (
{
name = _top;
position = "{210, -14}";
}
);
layerId = m01;
paths = (
{
closed = 1;
nodes = (
"372 135 OFFCURVE",
"406 189 OFFCURVE",
"434 249 CURVE",
"416 257 LINE",
"388 199 OFFCURVE",
"356 147 OFFCURVE",
"320 98 CURVE",
"336 86 LINE"
);
},
{
closed = 1;
nodes = (
"218 82 OFFCURVE",
"253 137 OFFCURVE",
"276 196 CURVE",
"258 204 LINE",
"235 147 OFFCURVE",
"202 94 OFFCURVE",
"162 42 CURVE",
"178 30 LINE"
);
},
{
closed = 1;
nodes = (
"52 54 OFFCURVE",
"76 110 OFFCURVE",
"98 166 CURVE",
"80 174 LINE",
"58 118 OFFCURVE",
"34 64 OFFCURVE",
"0 12 CURVE",
"16 0 LINE"
);
}
);
width = 434;
}
);
category = Mark;
subCategory = Nonspacing;
},
{
glyphname = "wasla-ar";
layers = (
{
layerId = m01;
paths = (
{
closed = 0;
nodes = (
"0 2 LINE"
);
}
);
width = 200;
}
);
category = Mark;
subCategory = Nonspacing;
},
{
glyphname = "fatha-ar";
layers = (
{
anchors = (
{
name = _fatha;
position = "{92, 92}";
}
);
layerId = m01;
name = "Color 0";
paths = (
{
closed = 1;
nodes = (
"142 0 OFFCURVE",
"184 42 OFFCURVE",
"184 92 CURVE SMOOTH",
"184 142 OFFCURVE",
"142 184 OFFCURVE",
"92 184 CURVE SMOOTH",
"42 184 OFFCURVE",
"0 142 OFFCURVE",
"0 92 CURVE SMOOTH",
"0 42 OFFCURVE",
"42 0 OFFCURVE",
"92 0 CURVE SMOOTH"
);
}
);
width = 184;
}
);
unicode = 064E;
category = Mark;
subCategory = Nonspacing;
},
{
glyphname = "madda-ar";
layers = (
{
layerId = m01;
paths = (
{
closed = 0;
nodes = (
"0 2 LINE"
);
}
);
width = 200;
}
);
unicode = 0653;
category = Mark;
subCategory = Nonspacing;
},
